<?xml version="1.0" encoding="UTF-8" standalone="no"?>
<svg
   width="231.66026"
   height="101"
   viewBox="0 0 231.66026 101"
   id="svg2"
   version="1.1"
   xmlns="http://www.w3.org/2000/svg"
   xmlns:svg="http://www.w3.org/2000/svg"
   xmlns:rdf="http://www.w3.org/1999/02/22-rdf-syntax-ns#"
   xmlns:cc="http://creativecommons.org/ns#"
   xmlns:dc="http://purl.org/dc/elements/1.1/">
  <defs
     id="defs4" />
  <metadata
     id="metadata7">
    <rdf:RDF>
      <cc:Work
         rdf:about="">
        <dc:format>image/svg+xml</dc:format>
        <dc:type
           rdf:resource="http://purl.org/dc/dcmitype/StillImage" />
      </cc:Work>
    </rdf:RDF>
  </metadata>
  <g
     id="layer1"
     transform="translate(643.41541,-491.86221)">
    <path
       style="fill:#14A2BC;fill-opacity:1;stroke:none;stroke-width:0.193858"
       d="m -643.41541,491.86221 v 43.42418 h 9.11132 v -34.31286 h 36.63916 v 22.68139 h 9.11132 v -22.68139 h 36.83301 v 34.31286 h 9.11133 v -43.42418 h -100.80614 m 22.87527,22.87524 v 55.05566 h 9.11132 v -23.0691 h 36.83302 v 23.0691 h 9.11132 v -55.05566 h -9.11132 v 22.87524 h -36.83302 v -22.87524 h -9.11132 m -22.87526,34.31286 v 43.61804 h 100.80614 v -43.61804 h -9.11133 v 34.50672 h -36.83301 v -22.87524 h -9.11132 v 22.87524 h -36.63916 v -34.50672 h -9.11132"
       id="path1363" />
    <path
       style="fill:#ffffff;stroke-width:0.193858"
       d="m -482.51456,592.68108 c -1.40106,-0.42618 -2.40832,-1.31659 -3.05621,-2.70168 -0.28865,-0.61706 -0.33669,-1.65092 -0.39079,-8.40942 l -0.0617,-7.70585 h 2.04575 2.04576 l 0.001,6.83349 c 5.8e-4,3.95768 0.0827,7.1272 0.19495,7.5314 0.29449,1.06017 0.82636,1.43453 2.03807,1.43453 1.19992,0 1.84869,-0.46394 2.43981,-1.74472 0.32559,-0.70545 0.35827,-1.37462 0.36214,-7.41507 l 0.004,-6.63963 h 2.0355 2.03551 v 9.30518 9.30518 h -1.72238 -1.72239 l -0.13306,-1.06497 -0.13306,-1.06498 -0.92749,0.95222 c -0.6845,0.70275 -1.198,1.03256 -1.95997,1.25884 -1.08896,0.32338 -2.28573,0.37189 -3.0958,0.12548 z m -40.90277,-14.06743 v -14.0547 h 2.0355 2.03551 v 5.71881 5.71881 h 3.29266 3.29266 l 0.0514,-5.67035 0.0514,-5.67034 2.08398,-0.055 2.08397,-0.055 v 14.06782 14.06782 l -2.08397,-0.055 -2.08398,-0.055 -0.0511,-6.45045 -0.0511,-6.45045 -3.24451,0.0531 -3.2445,0.0531 -0.0511,6.44577 -0.0511,6.44578 h -2.0329 -2.03289 z m 23.94145,13.79361 c -2.32206,-0.76457 -3.48821,-2.14268 -3.95644,-4.67557 -0.29195,-1.57933 -0.26321,-7.86361 0.0426,-9.32238 0.67286,-3.20923 2.78109,-4.73904 6.53088,-4.73904 3.74978,0 5.85802,1.52981 6.53088,4.73904 0.3057,1.45804 0.33465,7.74273 0.0429,9.32073 -0.40678,2.20048 -1.41173,3.58621 -3.18131,4.38671 -0.78252,0.35399 -1.38017,0.44882 -3.10173,0.49216 -1.38106,0.0348 -2.40566,-0.0363 -2.90787,-0.20165 z m 3.96348,-2.89239 c 0.26072,-0.13195 0.65328,-0.54503 0.87236,-0.91797 0.37258,-0.63423 0.39833,-0.98513 0.39833,-5.42759 0,-4.17497 -0.0414,-4.82534 -0.34253,-5.37627 -0.8948,-1.63728 -3.6543,-1.63728 -4.5491,0 -0.3011,0.55093 -0.34254,1.2013 -0.34254,5.37627 0,4.44246 0.0258,4.79336 0.39833,5.42759 0.21908,0.37294 0.61164,0.78602 0.87236,0.91797 0.60977,0.30859 2.08303,0.30859 2.69279,0 z m 28.95609,2.75676 c -1.7246,-0.68039 -2.57728,-2.03904 -2.57971,-4.11048 l -0.001,-0.92082 h 1.71995 1.71994 l 0.12611,0.78865 c 0.0712,0.44534 0.33133,0.99386 0.59754,1.26007 0.39296,0.39296 0.6621,0.47143 1.61696,0.47143 0.9671,0 1.22193,-0.0764 1.63608,-0.49056 0.90695,-0.90695 0.76663,-2.60353 -0.28878,-3.4916 -0.34307,-0.28867 -1.50654,-0.93813 -2.5855,-1.44322 -3.30387,-1.54666 -4.3886,-2.90055 -4.3981,-5.48941 -0.0118,-3.22716 1.68797,-4.95113 5.06517,-5.13713 3.90146,-0.21488 6.01872,1.28615 6.03014,4.27505 l 0.004,1.11468 h -1.84165 -1.84166 v -0.78424 c 0,-1.12194 -0.65136,-1.73591 -1.84165,-1.73591 -1.13731,0 -1.84165,0.62114 -1.84165,1.62411 0,1.06332 0.75333,1.75409 3.31146,3.03644 1.2578,0.63052 2.58651,1.40945 2.95269,1.73095 1.01574,0.89183 1.54416,2.31197 1.55302,4.17376 0.0126,2.65015 -0.66988,3.96502 -2.53293,4.87987 -1.00142,0.49175 -1.3457,0.55314 -3.34566,0.59662 -1.86617,0.0406 -2.39319,-0.0162 -3.23494,-0.34826 z m 16.09241,0.12754 c -1.84734,-0.60017 -3.11141,-1.87706 -3.66619,-3.70337 -0.39592,-1.30335 -0.58177,-6.84203 -0.30437,-9.07078 0.35746,-2.87194 1.38979,-4.51005 3.40225,-5.39871 1.32545,-0.58529 4.61233,-0.74242 6.15214,-0.2941 3.00711,0.87552 4.13408,3.14641 4.00685,8.07395 l -0.0575,2.22937 h -4.74952 -4.74952 l 0.036,1.51008 c 0.0595,2.49842 0.50289,3.31246 1.98567,3.64562 0.97828,0.21981 2.25619,-0.0422 2.78496,-0.57094 0.21274,-0.21275 0.44091,-0.7207 0.50703,-1.12878 l 0.12022,-0.74197 1.98413,-0.0552 1.98414,-0.0553 v 0.67801 c 0,1.0632 -0.69946,2.67228 -1.50116,3.45337 -1.246,1.21398 -2.33508,1.57857 -4.89615,1.63908 -1.48406,0.0351 -2.5,-0.0353 -3.03889,-0.21034 z m 5.45335,-12.33159 c -0.0118,-1.44601 -0.20501,-2.07957 -0.80283,-2.6336 -0.42966,-0.3982 -0.69934,-0.46812 -1.80549,-0.46812 -1.113,0 -1.37459,0.0688 -1.81533,0.47722 -0.62604,0.5802 -0.8061,1.03315 -0.98273,2.47218 l -0.13598,1.10776 2.00013,0.0673 c 1.10006,0.037 2.34907,0.0619 2.77556,0.0554 l 0.77543,-0.0119 -0.009,-1.06622 z m 23.27172,-14.72803 c -2.09191,-0.68449 -3.40136,-2.22019 -3.46072,-4.05868 l -0.0287,-0.88987 1.89012,-0.0555 c 1.61968,-0.0476 1.89011,-0.0115 1.89011,0.25195 0,0.6232 0.62393,1.4888 1.26673,1.75738 0.85105,0.3556 2.24627,0.35188 3.10828,-0.008 1.03723,-0.43339 1.24687,-1.15398 1.24687,-4.28571 v -2.64339 l -0.65813,0.57784 c -2.06381,1.81204 -5.56163,1.49149 -7.20269,-0.66009 -1.18114,-1.54858 -1.34828,-2.52459 -1.34012,-7.82577 0.007,-4.52159 0.0292,-4.80534 0.46413,-5.91266 0.6256,-1.59283 1.90179,-2.86072 3.29551,-3.27409 1.9139,-0.56764 3.25575,-0.28321 4.67231,0.99039 l 0.96285,0.86569 0.003,-0.55107 c 0.007,-1.39104 0.0536,-1.42344 2.06263,-1.42344 h 1.8262 l -0.0556,11.67994 c -0.0542,11.3749 -0.0662,11.70279 -0.46042,12.55448 -0.54049,1.16768 -1.49596,2.08841 -2.79267,2.69118 -1.47526,0.68575 -4.91925,0.79886 -6.68929,0.21969 z m 5.10263,-12.28665 0.7131,-0.71272 0.0584,-4.5433 c 0.0673,-5.23583 0.0254,-5.41571 -1.42339,-6.11706 -1.07428,-0.52005 -2.22204,-0.43903 -2.90785,0.20527 -0.6646,0.62436 -0.86435,1.92183 -0.86435,5.61436 0,3.86308 0.20824,5.08451 1.0022,5.87848 0.51856,0.51855 0.65433,0.55808 1.63715,0.47657 0.9175,-0.0761 1.17428,-0.19142 1.78478,-0.8016 z m -75.81534,3.94036 c -1.71602,-0.43213 -3.11392,-1.52625 -3.81885,-2.98897 -0.6269,-1.30082 -0.83531,-3.37487 -0.73145,-7.27934 0.10706,-4.02462 0.33051,-5.07597 1.36796,-6.43615 2.34588,-3.07566 9.19859,-2.96146 11.19501,0.18657 0.83556,1.31755 0.96814,1.95198 1.09312,5.23089 l 0.11268,2.95633 h -4.90161 -4.9016 l 0.10093,1.61781 c 0.11661,1.86924 0.53709,2.92552 1.32724,3.33411 0.66032,0.34147 2.29473,0.36912 2.9937,0.0507 0.58308,-0.26567 1.0608,-1.0737 1.0608,-1.79428 v -0.49427 h 2.06251 2.06251 l -0.11301,0.95417 c -0.23771,2.00709 -1.58197,3.73348 -3.41958,4.39165 -1.04032,0.37262 -4.42346,0.5395 -5.49036,0.27083 z m 5.01367,-12.7175 c -0.0724,-0.7068 -0.26473,-1.54242 -0.42737,-1.85692 -0.38248,-0.73964 -1.4566,-1.19247 -2.53913,-1.07046 -1.59528,0.17981 -2.26237,0.98653 -2.49166,3.01319 l -0.13568,1.1993 h 2.86275 2.86275 z m 11.65665,12.54999 c -1.46529,-0.48398 -2.34427,-1.1766 -3.04073,-2.39605 -0.85325,-1.49399 -1.0326,-2.95845 -0.93185,-7.60876 0.099,-4.56934 0.25387,-5.28669 1.4407,-6.67325 1.29603,-1.51412 3.83958,-2.31889 6.46111,-2.04428 2.55301,0.26744 4.26927,1.33512 5.11016,3.17904 0.34553,0.75766 0.4147,1.35593 0.47785,4.13302 l 0.0738,3.24712 h -4.79278 -4.79278 l 0.0853,1.69626 c 0.13589,2.70242 0.83076,3.53791 2.94243,3.53791 1.3581,0 2.19336,-0.61953 2.37611,-1.76241 l 0.12117,-0.75774 h 2.03274 2.03275 l -0.12987,0.92082 c -0.1791,1.26989 -0.98348,2.86504 -1.73306,3.43677 -1.29544,0.98808 -2.40643,1.32689 -4.57841,1.39623 -1.61115,0.0514 -2.26883,-0.0121 -3.15467,-0.30468 z m 5.48097,-12.4472 c 0,-2.23608 -0.98653,-3.24932 -2.93857,-3.01813 -1.64493,0.19482 -2.23845,0.91202 -2.42717,2.933 l -0.11835,1.26745 h 2.74204 2.74205 z m 12.09978,12.53998 c -1.86559,-0.58407 -2.76343,-1.5446 -3.27032,-3.49868 -0.23547,-0.90776 -0.29971,-2.31013 -0.29971,-6.54271 v -5.38729 h -1.06622 -1.06622 v -1.64779 -1.6478 h 1.06622 1.06622 l 0.007,-2.37476 0.007,-2.37476 1.91689,-1.30854 c 1.0543,-0.7197 1.96716,-1.30854 2.0286,-1.30854 0.0614,0 0.1117,1.65396 0.1117,3.67546 v 3.67546 l 1.59933,0.0563 1.59933,0.0563 0.0563,1.59933 0.0563,1.59933 h -1.65563 -1.65563 l 7.7e-4,5.37956 c 5.9e-4,5.00592 0.0272,5.42296 0.38171,6.00439 0.42035,0.68942 0.98433,0.90713 2.37944,0.91852 l 0.92023,0.008 5.8e-4,1.57859 c 3.9e-4,1.261 -0.0611,1.60226 -0.30604,1.69625 -0.53125,0.20386 -3.05194,0.10236 -3.87764,-0.15614 z m -65.21686,-13.87782 v -13.95777 h 3.38882 c 3.35512,0 3.38982,0.004 3.48998,0.43618 0.0556,0.2399 0.97582,5.31667 2.04485,11.28172 1.06903,5.96505 1.973,10.87485 2.00883,10.91068 0.0762,0.0762 0.11823,-0.15246 2.36946,-12.88666 l 1.72205,-9.74081 3.34405,-5.6e-4 3.34405,-5.5e-4 v 13.95777 13.95778 h -1.93858 -1.93858 v -11.76072 c 0,-6.46839 -0.0358,-11.72437 -0.0795,-11.67994 -0.0437,0.0444 -1.06305,5.33923 -2.26517,11.76624 l -2.18567,11.68547 -2.43222,-0.054 -2.43221,-0.054 -2.16866,-11.59941 c -1.19276,-6.37967 -2.21943,-11.65019 -2.2815,-11.71225 -0.0621,-0.0621 -0.11284,5.17948 -0.11284,11.64787 v 11.76072 h -1.93858 -1.93858 z m 72.50287,4.55567 v -9.40212 h 2.03551 2.03551 v 9.40212 9.40211 h -2.03551 -2.03551 z m 8.52975,0 v -9.40212 h 1.72768 1.72769 l 0.12814,0.8239 c 0.2429,1.56192 0.29109,1.62813 0.70711,0.97108 0.44708,-0.7061 1.54389,-1.47335 2.57093,-1.79843 1.78491,-0.56497 4.37475,0.18261 5.34292,1.54226 0.93881,1.31844 0.97787,1.70713 0.97787,9.72933 v 7.53609 h -2.0355 -2.03551 v -7.08205 c 0,-7.52961 -0.0664,-8.13723 -0.94014,-8.60485 -0.21526,-0.1152 -0.78663,-0.20946 -1.26975,-0.20946 -0.70545,0 -1.01283,0.11807 -1.5615,0.59982 -1.17542,1.03203 -1.26892,1.69037 -1.26892,8.93441 v 6.36213 h -2.03551 -2.03551 z m -8.52975,-15.89636 v -2.03551 h 2.03551 2.03551 v 2.03551 2.03551 h -2.03551 -2.03551 z m 15.89636,-3.20479 c -2.74482,-0.57437 -4.3287,-2.03726 -4.58946,-4.23888 l -0.11714,-0.98915 h 1.96558 c 1.83114,0 1.96558,0.0263 1.96558,0.38466 0,0.21156 0.25264,0.6674 0.5614,1.01297 0.52258,0.58487 0.65995,0.63269 1.98704,0.69165 1.77306,0.0788 2.5516,-0.31479 2.86662,-1.44916 0.24313,-0.87559 0.27876,-5.09885 0.043,-5.09885 -0.0901,0 -0.3225,0.17534 -0.51643,0.38964 -0.44367,0.49023 -2.02047,0.96736 -3.19692,0.96736 -0.49439,0 -1.37274,-0.13938 -1.95185,-0.30973 -1.29185,-0.38002 -2.68397,-1.71225 -3.04365,-2.91275 -0.17112,-0.57113 -0.23866,-2.91633 -0.23866,-8.28609 v -7.48951 h 2.03551 2.03551 v 7.18237 c 0,7.81572 0.0401,8.13 1.08812,8.52846 1.27318,0.48406 2.93457,0.0106 3.55951,-1.01442 0.37337,-0.61241 0.39126,-0.96253 0.39196,-7.66906 v -7.02735 h 2.04405 2.04406 l -0.057,11.58302 -0.057,11.58301 -0.55379,1.1278 c -0.63481,1.29282 -1.78456,2.24705 -3.29541,2.735 -1.185,0.38271 -3.8153,0.54091 -4.97133,0.29901 z m -56.31574,-8.54944 c -2.85629,-0.33676 -4.12148,-1.56336 -4.21829,-4.08961 l -0.0466,-1.21566 h 1.74472 1.74473 l 0.0592,0.7113 c 0.0374,0.44932 0.2435,0.89557 0.55954,1.21161 0.42299,0.42299 0.67433,0.50032 1.62622,0.50032 1.52619,0 2.13238,-0.49938 2.24943,-1.85306 0.13238,-1.53107 -0.29538,-2.01369 -2.90541,-3.27803 -2.77264,-1.34311 -3.65301,-1.98193 -4.33853,-3.14817 -0.48982,-0.8333 -0.54599,-1.10873 -0.54533,-2.67372 5.8e-4,-1.32659 0.0871,-1.90733 0.36095,-2.42322 0.98433,-1.85409 2.61146,-2.71402 5.13535,-2.71402 1.87706,0 3.3119,0.41303 4.22747,1.21691 0.90779,0.79705 1.22847,1.59106 1.22847,3.04174 v 1.16938 h -1.72769 -1.72768 l -0.13443,-0.8239 c -0.19602,-1.20136 -0.73153,-1.69626 -1.83546,-1.69626 -1.21987,0 -1.74749,0.49191 -1.74749,1.6292 0,1.23714 0.50124,1.72342 3.01955,2.92944 2.39567,1.14728 3.55873,2.05202 4.2157,3.27939 0.35674,0.66647 0.42214,1.10401 0.42214,2.82416 0,1.7321 -0.0642,2.15552 -0.43055,2.84066 -1.07925,2.01821 -3.61173,2.95348 -6.93605,2.56154 z m 16.381,0.008 c -3.13474,-0.28608 -4.47727,-1.77358 -4.857,-5.38148 -0.097,-0.92195 -0.17797,-3.61727 -0.17987,-5.98961 l -0.003,-4.31333 h -1.06622 -1.06622 v -1.55086 -1.55087 h 1.06025 1.06025 l 0.0544,-2.37041 0.0544,-2.37041 1.93858,-1.39028 1.93858,-1.39028 0.0969,3.71223 0.0969,3.71222 1.59933,0.0563 1.59933,0.0563 v 1.53519 1.53518 l -1.59933,0.0563 -1.59933,0.0563 -0.0591,4.26487 c -0.0758,5.47449 0.028,6.53867 0.71245,7.30475 0.4561,0.51046 0.68682,0.59758 1.8245,0.6889 l 1.30237,0.10454 v 1.60173 1.60173 l -0.8239,0.068 c -0.45314,0.0374 -1.39093,0.0162 -2.08397,-0.047 z m 10.85604,-0.0113 c -2.79214,-0.28751 -4.36807,-1.53531 -5.13018,-4.06203 -0.41759,-1.38448 -0.60335,-6.46959 -0.32486,-8.89285 0.27175,-2.36464 1.03169,-4.01315 2.21936,-4.81435 1.42759,-0.96305 1.99652,-1.10259 4.49576,-1.10259 2.61643,0 3.67417,0.3257 4.91145,1.51233 1.50062,1.43919 1.77205,2.64767 1.77205,7.88978 0,4.23462 -0.14108,5.38076 -0.82502,6.70267 -0.40837,0.78931 -1.69679,1.93648 -2.60704,2.32124 -0.97005,0.41004 -2.9545,0.60613 -4.51152,0.44581 z m 3.00244,-3.4579 c 0.26818,-0.25194 0.57421,-0.76988 0.68008,-1.15097 0.25029,-0.90101 0.25029,-8.82068 0,-9.72169 -0.27137,-0.97687 -0.9688,-1.56228 -1.99967,-1.67847 -1.4131,-0.15928 -2.23496,0.22687 -2.72115,1.2785 -0.38683,0.83672 -0.41563,1.20799 -0.41563,5.35775 0,3.97575 0.0395,4.53826 0.36474,5.19287 0.50074,1.00788 1.13055,1.32228 2.49201,1.24401 0.8451,-0.0486 1.22906,-0.17387 1.59962,-0.52199 z m -62.32297,-10.6644 v -13.95777 h 2.0355 2.03551 v 5.71881 5.71881 h 3.29559 3.29558 v -5.71881 -5.71881 h 2.13244 2.13244 v 13.95777 13.95778 h -2.13244 -2.13244 v -6.39732 -6.39731 h -3.29558 -3.29559 v 6.39731 6.39732 h -2.03551 -2.0355 z m 20.16122,4.65259 v -9.30518 h 1.93858 1.93858 v 9.30518 9.30519 h -1.93858 -1.93858 z m 50.98465,-0.0969 v -9.40212 h 1.72271 1.7227 l 0.12628,0.92083 c 0.0695,0.50645 0.17428,1.1641 0.23292,1.46143 l 0.10665,0.54061 0.5938,-0.89649 c 0.70601,-1.06588 1.64935,-1.7257 2.91603,-2.0396 0.84381,-0.20912 2.54057,-0.17035 2.77428,0.0634 0.0878,0.0878 -0.42491,3.59976 -0.60925,4.17303 -0.0627,0.1949 -0.21212,0.18085 -0.68671,-0.0646 -0.33362,-0.17252 -1.07089,-0.31785 -1.63837,-0.32295 -1.1659,-0.0105 -2.03991,0.40193 -2.68512,1.267 -0.39315,0.52714 -0.41001,0.78596 -0.46377,7.12428 l -0.0558,6.57728 h -2.02817 -2.02817 z m -50.98465,-15.89636 v -2.03551 h 1.93858 1.93858 v 2.03551 2.03551 h -1.93858 -1.93858 z"
       id="path844" />
  </g>
</svg>
