<?xml version="1.0" encoding="UTF-8"?>
<svg id="a"
  xmlns="http://www.w3.org/2000/svg"
  width="414.36"
  height="138.3"
  viewBox="0 0 414.36 138.3">
  <path d="M26.84,85.18c-10.14,0-18.37-8.22-18.37-18.37s8.22-18.37,18.37-18.37,18.37,8.22,18.37,18.37-8.22,18.37-18.37,18.37M59.6,66.2v28.63c0,4.08-3.32,7.4-7.4,7.4s-7.4-3.32-7.4-7.4v-8.09c5.45-4.91,8.87-12.02,8.87-19.93,0-9.74-5.19-18.26-12.95-22.97h34.29l-25.76-25.77h-27.62c-.26,0-.49.02-.74.03v-9.01h61.84L92.82,0H8.73v30.95c0,4.99,2.85,9.3,6.98,11.44C6.44,46.62,0,55.96,0,66.81c0,7.84,3.37,14.9,8.73,19.81v8.22c0,23.96,19.5,43.46,43.47,43.46s43.47-19.5,43.47-43.46v-28.59l-18.01,18.02-18.06-18.07Z"
    style="fill:#FFFF00; stroke-width:0px;" />
  <path d="M414.36,65.04h-7.59l-4.97,24.34h-.1l-5.44-24.34h-7.12l-5.45,24.24h-.11l-4.97-24.24h-7.64l8.38,32.88h8.22l5.13-21.47h.11l4.92,21.47h8.27l8.36-32.88ZM354.33,71.83h.11l3.56,13.98h-7.23l3.56-13.98ZM349.41,91.23h10l1.78,6.69h7.8l-10.16-32.88h-8.74l-10.16,32.88h7.75l1.73-6.69ZM323.35,64.58c-6.49,0-10.57,4.02-10.57,9.15,0,10.41,14.81,9.86,14.81,15.84,0,2.06-1.15,3.07-3.98,3.07-2.25,0-4.76-1.31-5.76-4.17l-5.71,1.96c1.36,4.88,6.18,7.95,11.52,7.95,6.8,0,11.15-3.47,11.15-9.66,0-10.76-14.45-10.16-14.45-15.34,0-1.91,1.05-3.02,3.67-3.02,2.46,0,4.5,1.06,5.5,3.57l5.18-2.52c-1.93-4.21-5.49-6.83-11.36-6.83M290.34,70.97h3.72c2.88,0,3.82,1.16,3.82,4.32,0,2.82-.78,4.42-3.77,4.42h-3.77v-8.74h0ZM299.03,97.92h8.27l-7.12-14.33c3.51-1.31,5.29-4.58,5.29-8.85,0-5.83-3.3-9.71-11.2-9.71h-11.62v32.88h7.7v-12.72h3.04l5.64,12.73ZM260.85,71.83h.1l3.56,13.98h-7.23l3.57-13.98ZM255.93,91.23h10l1.78,6.69h7.8l-10.16-32.88h-8.74l-10.16,32.88h7.75l1.73-6.69ZM244.46,65.04h-7.59l-4.97,24.34h-.1l-5.45-24.34h-7.12l-5.45,24.24h-.1l-4.97-24.24h-7.64l8.38,32.88h8.22l5.13-21.47h.11l4.92,21.47h8.27l8.36-32.88ZM159.64,65.04v32.88h7.7v-13.17h10.94v-5.83h-10.94v-7.59h12.83v-6.29h-20.53ZM143.73,86.61c0,4.22-1.47,5.88-4.71,5.88s-4.76-1.66-4.76-5.83v-10.36c0-4.07,1.47-5.68,4.76-5.68s4.71,1.66,4.71,5.68v10.31ZM139.02,64.58c-8.06,0-12.46,4.58-12.46,11.72v10.36c0,7.09,4.4,11.72,12.46,11.72s12.46-4.63,12.46-11.77v-10.31c0-7.14-4.45-11.72-12.46-11.72"
    style="fill:#FFFF00; stroke-width:0px;" />
  <path d="M317.08,11.56l-8.8,18.5h-.1l-8.8-18.5h-7.28v32.88h7.02v-18.86h.1l7.28,13.93h3.4l7.33-13.93h.1v18.86h7.02V11.56h-7.27ZM275.78,11.56v22.07c0,3.32-1.67,4.78-4.71,4.78-2.88,0-4.76-1.41-4.76-4.78V11.56h-7.75v22.07c0,6.99,4.56,11.26,12.51,11.26s12.41-4.43,12.41-11.62V11.55h-7.7ZM230.62,11.56v32.88h20.73v-6.24h-13.04v-7.84h9.37v-5.53h-9.37v-6.99h12.62v-6.29h-20.31ZM211.67,11.1c-6.49,0-10.57,4.02-10.57,9.15,0,10.41,14.82,9.86,14.82,15.84,0,2.06-1.15,3.07-3.98,3.07-2.25,0-4.77-1.31-5.76-4.17l-5.71,1.96c1.36,4.88,6.18,7.95,11.52,7.95,6.81,0,11.15-3.47,11.15-9.66,0-10.76-14.45-10.16-14.45-15.33,0-1.91,1.05-3.02,3.67-3.02,2.46,0,4.5,1.06,5.5,3.57l5.18-2.51c-1.94-4.23-5.5-6.85-11.37-6.85M185.75,11.56v22.07c0,3.32-1.68,4.78-4.71,4.78s-4.76-1.41-4.76-4.78V11.56h-7.75v22.07c0,6.99,4.56,11.26,12.51,11.26s12.41-4.43,12.41-11.62V11.55h-7.7ZM152.58,11.56l-8.79,18.5h-.11l-8.8-18.5h-7.28v32.88h7.02v-18.86h.1l7.28,13.93h3.4l7.33-13.93h.11v18.86h7.02V11.56h-7.28Z"
    style="fill:#FFFF00; stroke-width:0px;" />
</svg>
