<?xml version="1.0" encoding="utf-8"?>
<!-- Generator: Adobe Illustrator 16.0.0, SVG Export Plug-In . SVG Version: 6.00 Build 0)  -->
<!DOCTYPE svg PUBLIC "-//W3C//DTD SVG 1.1//EN" "http://www.w3.org/Graphics/SVG/1.1/DTD/svg11.dtd">
<svg version="1.1"
  id="Layer_1"
  xmlns="http://www.w3.org/2000/svg"
  xmlns:xlink="http://www.w3.org/1999/xlink"
  x="0px"
  y="0px"
  width="117.667px"
  height="44px"
  viewBox="0 0 117.667 44"
  enable-background="new 0 0 117.667 44"
  xml:space="preserve">
  <polygon fill="#FFFFFF"
    points="65.933,12.742 62.113,12.742 65.963,6.492 65.963,5.281 59.697,5.281 59.697,7.029 63.441,7.029
	59.531,13.291 59.531,14.504 65.933,14.504 " />
  <polygon fill="#FFFFFF"
    points="88.475,9.216 88.504,9.216 90.604,13.121 91.584,13.121 93.699,9.216 93.73,9.216 93.73,14.504
	95.75,14.504 95.75,5.281 93.654,5.281 91.117,10.471 91.086,10.471 88.551,5.281 86.453,5.281 86.453,14.504 88.475,14.504 " />
  <polygon fill="#FFFFFF"
    points="40.153,9.216 40.184,9.216 42.283,13.121 43.264,13.121 45.379,9.216 45.409,9.216 45.409,14.504
	47.43,14.504 47.43,5.281 45.334,5.281 42.796,10.471 42.766,10.471 40.228,5.281 38.132,5.281 38.132,14.504 40.153,14.504 " />
  <path fill="#FFFFFF"
    d="M53.701,14.631c2.265,0,3.577-1.241,3.577-3.258V5.281h-2.217v6.19c0,0.931-0.484,1.341-1.36,1.341
	c-0.831,0-1.376-0.395-1.376-1.341v-6.19h-2.231v6.19C50.093,13.434,51.404,14.631,53.701,14.631" />
  <path fill="#FFFFFF"
    d="M83.797,11.373V5.281h-2.215v6.19c0,0.931-0.484,1.341-1.361,1.341c-0.832,0-1.375-0.395-1.375-1.341v-6.19
	h-2.232v6.19c0,1.962,1.313,3.159,3.607,3.159C82.486,14.631,83.797,13.39,83.797,11.373" />
  <polygon fill="#FFFFFF"
    points="74.374,12.756 70.613,12.756 70.613,10.555 73.316,10.555 73.316,9.005 70.613,9.005 70.613,7.043
	74.253,7.043 74.253,5.281 68.396,5.281 68.396,14.504 74.374,14.504 " />
  <polygon fill="#FFFFFF"
    points="113.859,21.008 112.229,25.436 112.201,25.436 110.602,21.008 108.141,21.008 111.113,27.438
	111.113,30.23 113.316,30.23 113.316,27.48 116.305,21.008 " />
  <polygon fill="#FFFFFF"
    points="46.39,27.832 46.358,27.832 44.79,21.008 42.735,21.008 41.166,27.804 41.136,27.804 39.703,21.008
	37.498,21.008 39.913,30.23 42.284,30.23 43.763,24.21 43.793,24.21 45.211,30.23 47.597,30.23 50.013,21.008 47.824,21.008 " />
  <path fill="#FFFFFF"
    d="M53.423,21.008l-2.929,9.221h2.234l0.499-1.875h2.884l0.513,1.875h2.249l-2.928-9.221H53.423z
	 M53.621,26.832l1.026-3.92h0.03l1.027,3.92H53.621z" />
  <path fill="#FFFFFF"
    d="M67.372,23.729c0-1.637-0.948-2.721-3.228-2.721h-3.352v9.221h2.217v-3.567h0.877l1.631,3.567h2.384
	l-2.052-4.018C66.86,25.844,67.372,24.93,67.372,23.729 M64.098,25.125H63.01V22.67h1.073c0.831,0,1.103,0.324,1.103,1.215
	C65.186,24.676,64.961,25.125,64.098,25.125" />
  <path fill="#FFFFFF"
    d="M71.823,23.348c0-0.536,0.302-0.846,1.058-0.846c0.709,0,1.299,0.295,1.586,1l1.494-0.705
	c-0.56-1.184-1.585-1.916-3.277-1.916c-1.871,0-3.047,1.127-3.047,2.565c0,2.921,4.271,2.765,4.271,4.444
	c0,0.578-0.332,0.859-1.148,0.859c-0.649,0-1.373-0.365-1.66-1.17l-1.644,0.551c0.39,1.367,1.779,2.226,3.319,2.226
	c1.963,0,3.214-0.97,3.214-2.707C75.989,24.631,71.823,24.801,71.823,23.348" />
  <polygon fill="#FFFFFF"
    points="77.895,22.756 81.639,22.756 77.729,29.02 77.729,30.229 84.129,30.229 84.129,28.468
	80.311,28.468 84.158,22.221 84.158,21.008 77.895,21.008 " />
  <path fill="#FFFFFF"
    d="M88.818,21.008l-2.928,9.221h2.234l0.498-1.875h2.885l0.512,1.875h2.248l-2.928-9.221H88.818z
	 M89.016,26.832l1.025-3.92h0.031l1.025,3.92H89.016z" />
  <polygon fill="#FFFFFF"
    points="103.594,27.832 103.563,27.832 101.992,21.008 99.939,21.008 98.367,27.804 98.34,27.804
	96.904,21.008 94.701,21.008 97.115,30.23 99.486,30.23 100.965,24.21 100.998,24.21 102.416,30.23 104.801,30.23 107.217,21.008
	105.027,21.008 " />
  <path fill="#FFFFFF"
    d="M18.338,21.027v8.33c0,1.188-0.964,2.154-2.152,2.154c-1.186,0-2.153-0.967-2.153-2.154v-2.354
	c1.585-1.43,2.581-3.498,2.581-5.799c0-2.834-1.509-5.315-3.768-6.684h9.977l-7.496-7.497H7.291c-0.075,0-0.144,0.005-0.215,0.011
	V4.412h17.992l2.937-2.646H3.54v8.576v0.429c0,1.452,0.827,2.705,2.032,3.328C2.875,15.328,1,18.047,1,21.205
	c0,2.281,0.979,4.334,2.54,5.761v2.392C3.54,36.328,9.214,42,16.186,42c6.974,0,12.645-5.672,12.645-12.643v-8.32l-5.24,5.242
	L18.338,21.027z M8.807,26.547c-2.951,0-5.344-2.393-5.344-5.344s2.393-5.344,5.344-5.344c2.951,0,5.344,2.393,5.344,5.344
	S11.758,26.547,8.807,26.547" />
  <g>
  </g>
  <g>
  </g>
  <g>
  </g>
  <g>
  </g>
  <g>
  </g>
  <g>
  </g>
</svg>
