<svg xmlns="http://www.w3.org/2000/svg" >
  <path data-name="Path 2301" d="M524.082,1030.039a6.041,6.041,0,1,1-6.041,6.041,6.039,6.039,0,0,1,6.041-6.041Zm0-6.041a1.511,1.511,0,0,1,1.51,1.51v1.51a1.51,1.51,0,1,1-3.021,0v-1.51a1.511,1.511,0,0,1,1.51-1.51Zm0,19.633a1.511,1.511,0,0,1,1.51,1.51v1.51a1.51,1.51,0,0,1-3.021,0v-1.51a1.511,1.511,0,0,1,1.51-1.51Zm-10.572-9.062h1.51a1.51,1.51,0,0,1,0,3.021h-1.51a1.51,1.51,0,0,1,0-3.021Zm19.633,0h1.51a1.51,1.51,0,0,1,0,3.021h-1.51a1.51,1.51,0,0,1,0-3.021Zm-17.6-7.038a1.512,1.512,0,0,1,2.136,0l1.068,1.072a1.51,1.51,0,1,1-2.135,2.129l-1.068-1.057a1.523,1.523,0,0,1,0-2.145Zm13.884,13.894a1.512,1.512,0,0,1,2.135,0l1.068,1.057a1.513,1.513,0,1,1-2.135,2.144l-1.068-1.072a1.5,1.5,0,0,1,0-2.13Zm-13.884,1.057,1.068-1.057a1.51,1.51,0,1,1,2.135,2.13l-1.068,1.072a1.513,1.513,0,1,1-2.136-2.144Zm13.884-13.879,1.068-1.072a1.513,1.513,0,0,1,2.135,2.145l-1.068,1.057a1.51,1.51,0,1,1-2.135-2.129Z" transform="translate(-512 -1023.998)" fill-rule="evenodd"/>
</svg>
