<svg xmlns="http://www.w3.org/2000/svg" width="268" height="28" viewBox="0 0 268 28">
  <g  data-name="Group 3376" transform="translate(-696 -355)">
    <g transform="translate(696 357)">
      <path data-name="Path 3504" d="M0,0H24V24H0Z" fill="none"/>
      <path data-name="Path 3505" d="M20,4H4A2,2,0,0,0,2.01,6L2,18a2.006,2.006,0,0,0,2,2H20a2.006,2.006,0,0,0,2-2V6A2.006,2.006,0,0,0,20,4ZM19,18H5a1,1,0,0,1-1-1V8l6.94,4.34a1.981,1.981,0,0,0,2.12,0L20,8v9A1,1,0,0,1,19,18Zm-7-7L4,6H20Z" />
    </g>
    <text data-name="Administrator Systemu" transform="translate(750 355)"  font-size="21" font-family="Roboto-Regular, Roboto"><tspan x="0" y="22">Administrator Systemu</tspan></text>
  </g>
</svg>
