<svg  xmlns="http://www.w3.org/2000/svg" width="30" height="30" viewBox="0 0 30 30">
  <g data-name="Group 3379">
    <rect data-name="Rectangle 1179" width="30" height="30" fill="none"/>
  </g>
  <g data-name="Group 3381" transform="translate(2 2)">
    <g  data-name="Group 3380">
      <path  data-name="Path 3508" d="M25.4,2H4.6A2.7,2.7,0,0,0,2,4.6V8.513a2.626,2.626,0,0,0,1.3,2.2V25.4A2.793,2.793,0,0,0,5.9,28H24.1a2.793,2.793,0,0,0,2.6-2.6V10.71a2.626,2.626,0,0,0,1.3-2.2V4.6A2.7,2.7,0,0,0,25.4,2ZM24.1,25.4H5.9V11.1H24.1ZM25.4,8.5H4.6V4.6H25.4Z" transform="translate(-2 -2)"/>
      <rect  data-name="Rectangle 1180" width="6" height="2" transform="translate(10 13.333)" />
    </g>
  </g>
</svg>
