<svg xmlns="http://www.w3.org/2000/svg" width="44.298" height="26.406" viewBox="0 0 44.298 26.406">
  <g transform="translate(-2 -99.725)">
    <path data-name="Path 3232" d="M22.149,98.725c-8.464,0-16.139,4.631-21.8,12.152a1.754,1.754,0,0,0,0,2.093c5.664,7.53,13.339,12.161,21.8,12.161s16.139-4.631,21.8-12.152a1.754,1.754,0,0,0,0-2.093C38.288,103.356,30.613,98.725,22.149,98.725Zm.607,22.5a9.317,9.317,0,1,1,8.69-8.69A9.323,9.323,0,0,1,22.756,121.225Zm-.281-4.3a5.017,5.017,0,1,1,4.685-4.685A5.009,5.009,0,0,1,22.475,116.93Z" transform="translate(2 1)"/>
  </g>
</svg>
