<svg xmlns="http://www.w3.org/2000/svg" width="21.553" height="21.552" viewBox="0 0 21.553 21.552">
  <path  data-name="Path 2379" d="M146.849,149.552H130.7a2.706,2.706,0,0,1-2.7-2.694v-13.47a2.693,2.693,0,0,1,2.7-2.694h2.683v-1.347a1.347,1.347,0,0,1,2.694,0v1.347h5.388v-1.347a1.347,1.347,0,0,1,2.694,0v1.347h2.685a2.706,2.706,0,0,1,2.7,2.694v13.47a2.693,2.693,0,0,1-2.7,2.694Zm.009-16.164h-2.694v1.347a1.347,1.347,0,0,1-2.694,0v-1.347h-5.388v1.347a1.347,1.347,0,0,1-2.694,0v-1.347h-2.694v13.47h16.165v-13.47Zm-4.041,10.776a1.347,1.347,0,1,1,1.347-1.347,1.348,1.348,0,0,1-1.347,1.347Zm0-4.041a1.347,1.347,0,1,1,1.347-1.347,1.348,1.348,0,0,1-1.347,1.347Zm-4.041,4.041a1.347,1.347,0,1,1,1.347-1.347,1.348,1.348,0,0,1-1.347,1.347Zm0-4.041a1.347,1.347,0,1,1,1.347-1.347,1.348,1.348,0,0,1-1.347,1.347Zm-4.041,4.041a1.347,1.347,0,1,1,1.347-1.347,1.348,1.348,0,0,1-1.347,1.347Zm0-4.041a1.347,1.347,0,1,1,1.347-1.347,1.347,1.347,0,0,1-1.347,1.347Z" transform="translate(-128 -128)" fill-rule="evenodd"/>
</svg>
