<svg xmlns="http://www.w3.org/2000/svg" width="32.523" height="19.849" viewBox="0 0 32.523 19.849">
  <path data-name="Path 2403" d="M22.574,19.849a1.505,1.505,0,0,1-1.067-.435,1.456,1.456,0,0,1,0-2.082l6.412-5.93H1.478a1.478,1.478,0,1,1,0-2.956H27.917L21.492,2.5a1.443,1.443,0,0,1-.427-1.028A1.465,1.465,0,0,1,21.505.435a1.532,1.532,0,0,1,2.139,0l8.139,7.71a2.508,2.508,0,0,1-.011,3.567l-8.122,7.693A1.524,1.524,0,0,1,22.574,19.849Z" transform="translate(32.523 19.849) rotate(180)" fill-rule="evenodd"/>
</svg>
