<svg xmlns="http://www.w3.org/2000/svg" width="57" height="47" viewBox="0 0 57 47">
  <g transform="translate(3 3)">
    <path data-name="Line 187" d="M51,3H0A3,3,0,0,1-3,0,3,3,0,0,1,0-3H51a3,3,0,0,1,3,3A3,3,0,0,1,51,3Z" transform="translate(0 41)"/>
    <path data-name="Line 188" d="M51,3H0A3,3,0,0,1-3,0,3,3,0,0,1,0-3H51a3,3,0,0,1,3,3A3,3,0,0,1,51,3Z" />
    <path data-name="Line 189" d="M49.884,3H0A3,3,0,0,1-3,0,3,3,0,0,1,0-3H49.884a3,3,0,0,1,3,3A3,3,0,0,1,49.884,3Z" transform="translate(0.714 20.692)" />
  </g>
</svg>
