<svg xmlns="http://www.w3.org/2000/svg" width="42.724" height="52.437" viewBox="0 0 42.724 52.437">
  <g id="Group_2752" data-name="Group 2752" transform="translate(-1594.295 -466.333)">
    <g id="Union_5" data-name="Union 5" transform="translate(1596.296 468.332)" fill="#c33" stroke-miterlimit="10">
      <path d="M 19.3617000579834 49.4379997253418 C 18.8248291015625 49.4379997253418 18.31830024719238 49.20262908935547 17.97196960449219 48.79224014282227 L 3.671299934387207 31.76790046691895 C 0.6584099531173706 28.18180084228516 -1.000900030136108 23.6265697479248 -1.000900030136108 18.9414005279541 C -1.000900030136108 7.946169853210449 7.944769859313965 -0.9991000294685364 18.94050025939941 -0.9991000294685364 L 19.78109931945801 -0.9991000294685364 C 30.77732086181641 -0.9991000294685364 39.7234001159668 7.946169853210449 39.7234001159668 18.9414005279541 C 39.7234001159668 23.6265697479248 38.06409072875977 28.18180084228516 35.05115127563477 31.76795959472656 L 20.75200080871582 48.79050064086914 C 20.40419960021973 49.20262908935547 19.89798927307129 49.4379997253418 19.3617000579834 49.4379997253418 Z M 19.14749908447266 9.651700019836426 C 12.8817195892334 9.651700019836426 10.02789974212646 14.53808975219727 10.02789974212646 19.07815933227539 C 10.02789974212646 21.56718063354492 10.83963966369629 23.87784004211426 12.3136100769043 25.58451080322266 C 13.9564094543457 27.48666954040527 16.31953048706055 28.49209976196289 19.14749908447266 28.49209976196289 C 25.41328048706055 28.49209976196289 28.26709938049316 23.60544013977051 28.26709938049316 19.06512069702148 C 28.26709938049316 16.57617950439453 27.45538902282715 14.26564025878906 25.98148918151855 12.55910968780518 C 24.33872985839844 10.65707015991211 21.97557067871094 9.651700019836426 19.14749908447266 9.651700019836426 Z" stroke="none"/>
      <path d="M 19.3617057800293 48.43800735473633 C 19.6028938293457 48.43800735473633 19.83060455322266 48.33180618286133 19.98630523681641 48.14730453491211 L 34.28550720214844 31.12470626831055 C 37.14749526977539 27.71820640563965 38.72340393066406 23.39100646972656 38.72340393066406 18.94140625 C 38.72340393066406 8.496905326843262 30.22560501098633 0.0009055525297299027 19.78110504150391 0.0009055525297299027 L 18.94050598144531 0.0009055525297299027 C 8.496905326843262 0.0009055525297299027 -0.0008945207227952778 8.496905326843262 -0.0008945207227952778 18.94140625 C -0.0008945207227952778 23.39100646972656 1.575005531311035 27.71820640563965 4.437005519866943 31.12470626831055 L 18.7362060546875 48.14730453491211 C 18.89190483093262 48.33180618286133 19.11960601806641 48.43800735473633 19.3617057800293 48.43800735473633 M 19.3034610748291 46.28517150878906 C 19.34106063842773 46.28758239746094 19.37831687927246 46.2892951965332 19.4155387878418 46.2904052734375 L 19.3617057800293 46.35450744628906 L 19.3034610748291 46.28517150878906 M 19.14750480651855 8.651705741882324 C 32.65200424194336 8.651705741882324 32.62860488891602 29.49210548400879 19.14750480651855 29.49210548400879 C 5.643905639648438 29.49210548400879 5.665505409240723 8.651705741882324 19.14750480651855 8.651705741882324 M 19.3617057800293 50.43800735473633 C 18.52958297729492 50.43800735473633 17.74449348449707 50.07321548461914 17.20773887634277 49.43718338012695 L 2.905605554580688 32.41110610961914 C -0.2583611905574799 28.64518356323242 -2.000894546508789 23.86150550842285 -2.000894546508789 18.94140625 C -2.000894546508789 7.394772052764893 7.393383026123047 -1.999094486236572 18.94050598144531 -1.999094486236572 L 19.78110504150391 -1.999094486236572 C 31.32872772216797 -1.999094486236572 40.72340393066406 7.394772052764893 40.72340393066406 18.94140625 C 40.72340393066406 23.86149406433105 38.98087310791016 28.64517211914062 35.81679534912109 32.41122817993164 L 21.5177059173584 49.4337043762207 C 20.9780158996582 50.07321548461914 20.19326019287109 50.43800735473633 19.3617057800293 50.43800735473633 Z M 19.14750480651855 10.65170574188232 C 13.53855037689209 10.65170574188232 11.02790546417236 14.88387203216553 11.02790546417236 19.07816123962402 C 11.02790546417236 21.2946605682373 11.77237224578857 23.42790603637695 13.07042789459229 24.93088340759277 C 14.51752758026123 26.60644912719727 16.61894989013672 27.49210548400879 19.14750480651855 27.49210548400879 C 24.75646018981934 27.49210548400879 27.26710510253906 23.25968360900879 27.26710510253906 19.06512832641602 C 27.26710510253906 14.87731647491455 24.75646018981934 10.65170574188232 19.14750480651855 10.65170574188232 Z" stroke="none" fill="#fff"/>
    </g>
  </g>
</svg>
