<svg xmlns="http://www.w3.org/2000/svg"
  width="37.248"
  height="23.572"
  viewBox="0 0 37.248 23.572">
  <g id="Group_2808"
    data-name="Group 2808"
    transform="translate(0 0) rotate(0)">
    <g id="Group_9"
      data-name="Group 9"
      transform="translate(0 10.208)">
      <path id="Path_12"
        data-name="Path 12"
        d="M34.729,1.131H.565A.566.566,0,0,1,.565,0H34.729a.566.566,0,0,1,0,1.131Z"
        fill="#82231E"
        stroke="#82231E"
        stroke-width="2" />
    </g>
    <g id="Group_10"
      data-name="Group 10"
      transform="translate(23.93)">
      <path id="Path_13"
        data-name="Path 13"
        d="M.566,21.548a.565.565,0,0,1-.4-.965l9.809-9.809L.166.965a.566.566,0,1,1,.8-.8L11.174,10.374a.564.564,0,0,1,0,.8L.965,21.383A.565.565,0,0,1,.566,21.548Z"
        fill="#82231E"
        stroke="#82231E"
        stroke-width="2" />
    </g>
  </g>
</svg>
