<svg xmlns="http://www.w3.org/2000/svg" width="10.119" height="16.711" viewBox="0 0 10.119 16.711">
  <path data-name="Path 3507" d="M-1.825-5.009a6.756,6.756,0,0,1,.382-2.507,5.143,5.143,0,0,1,1.4-1.838,7.149,7.149,0,0,0,1.353-1.473,2.313,2.313,0,0,0,.337-1.2q0-1.9-1.752-1.9a1.775,1.775,0,0,0-1.331.512A2.012,2.012,0,0,0-1.96-12H-5.217A4.331,4.331,0,0,1-3.83-15.362,5.4,5.4,0,0,1-.107-16.576a5.423,5.423,0,0,1,3.695,1.152A4.1,4.1,0,0,1,4.9-12.169a3.962,3.962,0,0,1-.427,1.8A7.433,7.433,0,0,1,2.982-8.482l-.91.866a3.084,3.084,0,0,0-.977,1.922l-.045.686Zm-.326,3.442A1.635,1.635,0,0,1-1.64-2.8,1.819,1.819,0,0,1-.331-3.291,1.819,1.819,0,0,1,.977-2.8a1.635,1.635,0,0,1,.511,1.237,1.622,1.622,0,0,1-.5,1.22A1.822,1.822,0,0,1-.331.135a1.822,1.822,0,0,1-1.32-.481A1.622,1.622,0,0,1-2.151-1.567Z" transform="translate(5.217 16.576)"/>
</svg>
