<svg xmlns="http://www.w3.org/2000/svg" width="20.551" height="20.549" viewBox="0 0 20.551 20.549">
  <path id="Path_2966" data-name="Path 2966" d="M43.231,16.725a.973.973,0,0,1,0-1.947h3l-5-4.994a1,1,0,0,1,0-1.4A.959.959,0,0,1,42.6,8.379l5,4.993V10.409a.974.974,0,0,1,1.948,0v4.01a2.3,2.3,0,0,1-2.28,2.305Zm-11.941,0a2.3,2.3,0,0,1-2.3-2.3V10.413a.967.967,0,0,1,.956-.976.974.974,0,0,1,.979.966v3.007l4.974-5a.993.993,0,0,1,1.39,0,.97.97,0,0,1,0,1.368l-4.96,4.987h2.949a.979.979,0,1,1,0,1.958ZM41.916,4.775a.99.99,0,0,1-.7-.286.951.951,0,0,1-.285-.679.965.965,0,0,1,.28-.683L46.2-1.866H43.236a.965.965,0,0,1-.687-.286.966.966,0,0,1-.285-.688.975.975,0,0,1,.973-.973h4.009a2.3,2.3,0,0,1,2.3,2.285V2.486a.964.964,0,0,1-.956.977.967.967,0,0,1-.978-.966v-3l-4.994,5A.985.985,0,0,1,41.916,4.775Zm-5.3-.02a.962.962,0,0,1-.681-.282l-.089-.089v0l-4.9-4.87V2.462a.978.978,0,0,1-1.956,0V-1.527a2.3,2.3,0,0,1,2.3-2.3h4.016a.968.968,0,0,1,.967.967.969.969,0,0,1-.967.967H32.3l5,4.974a.987.987,0,0,1,0,1.388.953.953,0,0,1-.681.281Z" transform="translate(-28.993 3.824)" fill-rule="evenodd"/>
</svg>
