<svg xmlns="http://www.w3.org/2000/svg" width="25.801" height="25.79" viewBox="0 0 25.801 25.79">
  <path id="Path_2650" data-name="Path 2650" d="M467.352,86.565c0-.013-12.9,0-12.9,0s0-8.061,0-8.061a1.612,1.612,0,0,0-3.224,0v8.061a3.224,3.224,0,0,0,3.224,3.224h12.9a3.223,3.223,0,0,0,3.215-3.224V78.5a1.612,1.612,0,1,0-3.224,0l.008,8.061Zm3.824-10.044a1.564,1.564,0,0,0,2.257-.235,1.714,1.714,0,0,0-.226-2.349l-11.2-9.514a1.76,1.76,0,0,0-2.289,0L448.586,73.89a1.713,1.713,0,0,0-.226,2.351,1.563,1.563,0,0,0,2.254.235l10.27-8.69,10.279,8.741.011-.008,0,0Z" transform="translate(-447.996 -63.999)" fill="#fff" fill-rule="evenodd"/>
</svg>
