<svg xmlns="http://www.w3.org/2000/svg" width="37.248" height="23.644" viewBox="0 0 37.248 23.644">
  <g id="Group_2808" data-name="Group 2808" transform="translate(36.248 22.549) rotate(180)">
    <g id="Group_9" data-name="Group 9" transform="translate(0 10.209)">
      <path id="Path_12" data-name="Path 12" d="M34.706,1.131H.542A.566.566,0,0,1,.542,0H34.706a.566.566,0,0,1,0,1.131Z" transform="translate(0 0)" fill="#09c" stroke="#09c" stroke-width="2"/>
    </g>
    <g id="Group_10" data-name="Group 10" transform="translate(23.907 0)">
      <path id="Path_13" data-name="Path 13" d="M.566,21.549a.565.565,0,0,1-.4-.965l9.809-9.809L.166.966a.566.566,0,1,1,.8-.8L11.174,10.375a.564.564,0,0,1,0,.8L.965,21.384A.565.565,0,0,1,.566,21.549Z" fill="#09c" stroke="#09c" stroke-width="2"/>
    </g>
  </g>
</svg>
