<svg xmlns="http://www.w3.org/2000/svg" width="17.199" height="17.2" viewBox="0 0 17.199 17.2">
  <path id="Path_3230" data-name="Path 3230" d="M209.154,330.938l-.852,2.053a.547.547,0,0,1-.715.3l-.969-.4a1.333,1.333,0,0,0-1.73,1.73l.4.967a.543.543,0,0,1-.3.716l-2.053.853a.546.546,0,0,1-.715-.3l-.4-.971a1.336,1.336,0,0,0-2.45,0l-.4.972a.543.543,0,0,1-.716.3l-2.053-.849a.55.55,0,0,1-.3-.716l.4-.967a1.334,1.334,0,0,0-1.73-1.73l-.969.4a.542.542,0,0,1-.715-.3l-.849-2.057a.549.549,0,0,1,.3-.717l.971-.4a1.33,1.33,0,0,0,0-2.443l-.969-.4a.544.544,0,0,1-.3-.716l.852-2.053a.549.549,0,0,1,.715-.3l.967.4a1.334,1.334,0,0,0,1.73-1.73l-.4-.967a.543.543,0,0,1,.3-.716l2.053-.849a.546.546,0,0,1,.715.3l.4.97a1.336,1.336,0,0,0,2.45,0l.4-.972a.543.543,0,0,1,.716-.3l2.053.849a.55.55,0,0,1,.3.716l-.4.962a1.333,1.333,0,0,0,1.734,1.735l.963-.4a.54.54,0,0,1,.715.3l.849,2.057a.549.549,0,0,1-.3.717l-.97.4a1.33,1.33,0,0,0,0,2.443l.972.4a.543.543,0,0,1,.3.716ZM200.6,324.3a4.3,4.3,0,1,0,3.039,1.26,4.3,4.3,0,0,0-3.039-1.26Zm0,6.448a2.15,2.15,0,1,1,1.52-.63,2.149,2.149,0,0,1-1.52.63Z" transform="translate(-192 -320)" fill-rule="evenodd" fill="#9a9a9a"/>
</svg>
