<?xml version="1.0" encoding="UTF-8" standalone="no"?>
<!DOCTYPE svg PUBLIC "-//W3C//DTD SVG 1.1//EN" "http://www.w3.org/Graphics/SVG/1.1/DTD/svg11.dtd">
<svg width="100%" height="100%" viewBox="0 0 31 31" version="1.1" xmlns="http://www.w3.org/2000/svg" xmlns:xlink="http://www.w3.org/1999/xlink" xml:space="preserve" xmlns:serif="http://www.serif.com/" style="fill-rule:evenodd;clip-rule:evenodd;stroke-linejoin:round;stroke-miterlimit:2;">
    <path d="M24.637,9.182L24.637,26.77C24.637,27.414 24.107,27.943 23.464,27.943C23.464,27.943 7.302,27.943 7.302,27.943C6.659,27.943 6.13,27.414 6.13,26.77L6.13,9.182C6.13,8.518 5.59,7.978 4.925,7.978C4.261,7.978 3.721,8.518 3.721,9.182L3.721,26.77C3.721,28.735 5.338,30.351 7.302,30.351L23.464,30.351C25.428,30.351 27.045,28.735 27.045,26.77C27.045,26.77 27.045,9.182 27.045,9.182C27.045,8.518 26.505,7.978 25.841,7.978C25.176,7.978 24.637,8.518 24.637,9.182ZM14.157,11.883L14.157,23.122C14.157,23.786 14.697,24.326 15.361,24.326C16.026,24.326 16.566,23.786 16.566,23.122L16.566,11.883C16.566,11.218 16.026,10.679 15.361,10.679C14.697,10.679 14.157,11.218 14.157,11.883ZM8.939,11.883L8.939,23.122C8.939,23.786 9.479,24.326 10.143,24.326C10.808,24.326 11.348,23.786 11.348,23.122L11.348,11.883C11.348,11.218 10.808,10.679 10.143,10.679C9.479,10.679 8.939,11.218 8.939,11.883ZM19.375,11.883L19.375,23.122C19.375,23.786 19.915,24.326 20.58,24.326C21.244,24.326 21.784,23.786 21.784,23.122L21.784,11.883C21.784,11.218 21.244,10.679 20.58,10.679C19.915,10.679 19.375,11.218 19.375,11.883ZM9.341,5.461L2.517,5.461C1.853,5.461 1.313,6 1.313,6.665C1.313,7.329 1.853,7.869 2.517,7.869L28.206,7.869C28.87,7.869 29.41,7.329 29.41,6.665C29.41,6 28.87,5.461 28.206,5.461L21.256,5.461L21.256,1.577C21.256,0.912 20.717,0.373 20.052,0.373L10.545,0.373C9.88,0.373 9.341,0.912 9.341,1.577L9.341,5.461ZM11.749,5.461L18.848,5.461L18.848,2.781C18.848,2.781 11.749,2.781 11.749,2.781L11.749,5.461Z" />
</svg>
