<svg xmlns="http://www.w3.org/2000/svg" width="19.414" height="19.41" viewBox="0 0 19.414 19.41">
  <path  data-name="Path 2303" d="M146.812,903.279h-5.5c-.667,0-.829-.379-.343-.861l1.868-1.86a7.31,7.31,0,0,0-5.128-2.131V896a9.741,9.741,0,0,1,6.85,2.839l2-1.989c.473-.47.856-.3.856.352v5.48a.606.606,0,0,1-.6.6ZM128,905.7a9.705,9.705,0,0,1,9.7-9.7v2.426a7.279,7.279,0,1,0,0,14.557v2.426A9.705,9.705,0,0,1,128,905.7Zm17,.928a1.144,1.144,0,0,1,1.2-.928,1.214,1.214,0,0,1,1.188,1.48,9.738,9.738,0,0,1-9.632,8.225H137.7v-2.426h.042a7.3,7.3,0,0,0,7.25-6.351Z" transform="translate(-128 -896)" fill-rule="evenodd"/>
</svg>
