<?xml version="1.0" encoding="UTF-8" standalone="no"?>
<!DOCTYPE svg PUBLIC "-//W3C//DTD SVG 1.1//EN" "http://www.w3.org/Graphics/SVG/1.1/DTD/svg11.dtd">
<svg width="100%" height="100%" viewBox="0 0 20 20" version="1.1" xmlns="http://www.w3.org/2000/svg"  xml:space="preserve"  style="fill-rule:evenodd;clip-rule:evenodd;stroke-linejoin:round;stroke-miterlimit:2;">
    <g id="Path_3510" transform="matrix(0.925293,0,0,0.925293,9.9395,17.1031)">
        <path d="M6.925,-18.484L6.925,-6.132C7.011,-4.377 6.321,-2.669 5.04,-1.466C3.649,-0.271 1.851,0.345 0.019,0.254C-1.815,0.352 -3.619,-0.255 -5.021,-1.441C-6.301,-2.658 -6.983,-4.378 -6.887,-6.141L-6.887,-18.481L-3.687,-18.481L-3.687,-6.119C-3.758,-5.089 -3.421,-4.071 -2.748,-3.288C-2.002,-2.591 -0.998,-2.236 0.02,-2.31C2.491,-2.31 3.727,-3.613 3.727,-6.22L3.727,-18.484L6.925,-18.484ZM-8.474,2L8.474,2L8.474,3L-8.474,3L-8.474,2Z" style="fill-rule:nonzero;"/>
    </g>
</svg>
