<svg xmlns="http://www.w3.org/2000/svg" viewBox="0 0 53.554 54.645">
  <g id="Group_2916" data-name="Group 2916" transform="translate(-468.5 -252.5)">
    <g id="Ellipse_11754" data-name="Ellipse 11754" transform="translate(489.277 273.823)" fill="#09c" stroke="#fff" stroke-width="1.5">
      <circle cx="6" cy="6" r="6" stroke="none"/>
      <circle cx="6" cy="6" r="6.75" fill="none"/>
    </g>
    <g id="Path_3291" data-name="Path 3291" transform="translate(0 0)" fill="#09c">
      <path d="M 495.1860961914062 306.3951416015625 C 493.6194152832031 306.3951416015625 492.3448486328125 305.1205749511719 492.3448486328125 303.5538940429688 L 492.3448486328125 300.3933410644531 C 490.2345886230469 300.111572265625 488.1943054199219 299.5066833496094 486.2704467773438 298.5916748046875 C 484.2002563476562 297.6070251464844 482.3185424804688 296.2900085449219 480.6775207519531 294.6771545410156 C 479.0377807617188 293.0655212402344 477.6888427734375 291.2081909179688 476.6681518554688 289.1566772460938 C 475.7193298339844 287.2496337890625 475.0783996582031 285.2213439941406 474.7592468261719 283.1184692382812 L 472.09130859375 283.1184692382812 C 470.5245971679688 283.1184692382812 469.2499694824219 281.8439025878906 469.2499694824219 280.2772216796875 C 469.2499694824219 278.7105407714844 470.5245971679688 277.4359436035156 472.09130859375 277.4359436035156 L 474.6839904785156 277.4359436035156 C 475.8351745605469 268.1937561035156 483.1143188476562 260.8488464355469 492.3448486328125 259.6155395507812 L 492.3448486328125 256.0912475585938 C 492.3448486328125 254.5245666503906 493.6194152832031 253.2499847412109 495.1860961914062 253.2499847412109 C 496.7527770996094 253.2499847412109 498.02734375 254.5245666503906 498.02734375 256.0912475585938 L 498.02734375 259.6417541503906 C 500.164306640625 259.9465026855469 502.22607421875 260.5828247070312 504.165283203125 261.5369262695312 C 506.2488403320312 262.5621032714844 508.1334838867188 263.9245910644531 509.766845703125 265.5865478515625 C 511.4014282226562 267.249755859375 512.7314453125 269.1591186523438 513.7200317382812 271.2615966796875 C 514.6397705078125 273.2177429199219 515.239501953125 275.2917175292969 515.5064086914062 277.4359436035156 L 518.4627685546875 277.4359436035156 C 520.0294189453125 277.4359436035156 521.3040161132812 278.7105407714844 521.3040161132812 280.2772216796875 C 521.3040161132812 281.8439025878906 520.0294189453125 283.1184692382812 518.4627685546875 283.1184692382812 L 515.4310913085938 283.1184692382812 C 515.1141967773438 285.2061462402344 514.4801025390625 287.2206115722656 513.5423583984375 289.1157836914062 C 512.532958984375 291.1558227539062 511.1986999511719 293.0054931640625 509.5767211914062 294.6134338378906 C 507.9541015625 296.2219848632812 506.0922241210938 297.5403137207031 504.0428161621094 298.53173828125 C 502.1392211914062 299.45263671875 500.1187744140625 300.0688171386719 498.02734375 300.3670654296875 L 498.02734375 303.5538940429688 C 498.02734375 305.1205749511719 496.7527770996094 306.3951416015625 495.1860961914062 306.3951416015625 Z M 479.6061706542969 283.1184692382812 C 480.8801879882812 289.4779663085938 485.9562683105469 294.4379577636719 492.3448486328125 295.5621948242188 L 492.3448486328125 293.3703002929688 C 492.3448486328125 291.8036193847656 493.6194152832031 290.529052734375 495.1860961914062 290.529052734375 C 496.7527770996094 290.529052734375 498.02734375 291.8036193847656 498.02734375 293.3703002929688 L 498.02734375 295.5291137695312 C 504.3216552734375 294.342041015625 509.3234252929688 289.3984680175781 510.5840148925781 283.1184692382812 L 508.2792053222656 283.1184692382812 C 506.7125244140625 283.1184692382812 505.4379577636719 281.8439025878906 505.4379577636719 280.2772216796875 C 505.4379577636719 278.7105407714844 506.7125244140625 277.4359436035156 508.2792053222656 277.4359436035156 L 510.6841430664062 277.4359436035156 C 509.6131286621094 270.8717346191406 504.5634460449219 265.7028503417969 498.02734375 264.4791259765625 L 498.02734375 266.2748413085938 C 498.02734375 267.8415222167969 496.7527770996094 269.1160888671875 495.1860961914062 269.1160888671875 C 493.6194152832031 269.1160888671875 492.3448486328125 267.8415222167969 492.3448486328125 266.2748413085938 L 492.3448486328125 264.447265625 C 485.8122253417969 265.6064453125 480.5901489257812 270.8896484375 479.5072021484375 277.4359436035156 L 482.2748107910156 277.4359436035156 C 483.8414916992188 277.4359436035156 485.1160583496094 278.7105407714844 485.1160583496094 280.2772216796875 C 485.1160583496094 281.8439025878906 483.8414916992188 283.1184692382812 482.2748107910156 283.1184692382812 L 479.6061706542969 283.1184692382812 Z" stroke="none"/>
      <path d="M 495.1860961914062 254 C 494.0311279296875 254 493.0948486328125 254.9363403320312 493.0948486328125 256.0912475585938 L 493.0948486328125 260.2828674316406 C 483.6844482421875 261.2259521484375 476.2157592773438 268.7508544921875 475.357421875 278.1859436035156 L 472.09130859375 278.1859436035156 C 470.9363403320312 278.1859436035156 470 279.122314453125 470 280.2772216796875 C 470 281.4320983886719 470.9363403320312 282.3684692382812 472.09130859375 282.3684692382812 L 475.41455078125 282.3684692382812 C 476.5054931640625 291.5467529296875 483.86669921875 298.8010864257812 493.0948486328125 299.7259521484375 L 493.0948486328125 303.5538940429688 C 493.0948486328125 304.7088012695312 494.0311279296875 305.6451416015625 495.1860961914062 305.6451416015625 C 496.3410034179688 305.6451416015625 497.27734375 304.7088012695312 497.27734375 303.5538940429688 L 497.27734375 299.7057495117188 C 506.4201965332031 298.7045593261719 513.6919555664062 291.4861755371094 514.7758178710938 282.3684692382812 L 518.4627685546875 282.3684692382812 C 519.6177368164062 282.3684692382812 520.5540161132812 281.4320983886719 520.5540161132812 280.2772216796875 C 520.5540161132812 279.122314453125 519.6177368164062 278.1859436035156 518.4627685546875 278.1859436035156 L 514.8329467773438 278.1859436035156 C 513.9800415039062 268.81201171875 506.6016845703125 261.3243103027344 497.27734375 260.3030700683594 L 497.27734375 256.0912475585938 C 497.27734375 254.9363403320312 496.3410034179688 254 495.1860961914062 254 M 495.1860961914062 268.3660888671875 C 496.3410034179688 268.3660888671875 497.27734375 267.4297180175781 497.27734375 266.2748413085938 L 497.27734375 263.6001892089844 C 504.781005859375 264.5930480957031 510.7136840820312 270.6326293945312 511.5430603027344 278.1859436035156 L 508.2792053222656 278.1859436035156 C 507.1242980957031 278.1859436035156 506.1879577636719 279.122314453125 506.1879577636719 280.2772216796875 C 506.1879577636719 281.4320983886719 507.1242980957031 282.3684692382812 508.2792053222656 282.3684692382812 L 511.4737854003906 282.3684692382812 C 510.4254455566406 289.66552734375 504.5993041992188 295.4397888183594 497.27734375 296.4086303710938 L 497.27734375 293.3703002929688 C 497.27734375 292.2154235839844 496.3410034179688 291.279052734375 495.1860961914062 291.279052734375 C 494.0311279296875 291.279052734375 493.0948486328125 292.2154235839844 493.0948486328125 293.3703002929688 L 493.0948486328125 296.4314270019531 C 485.6875915527344 295.5348510742188 479.7734680175781 289.7257385253906 478.7165832519531 282.3684692382812 L 482.2748107910156 282.3684692382812 C 483.4297790527344 282.3684692382812 484.3660583496094 281.4320983886719 484.3660583496094 280.2772216796875 C 484.3660583496094 279.122314453125 483.4297790527344 278.1859436035156 482.2748107910156 278.1859436035156 L 478.6473083496094 278.1859436035156 C 479.4833984375 270.5717163085938 485.5055541992188 264.4959411621094 493.0948486328125 263.5774230957031 L 493.0948486328125 266.2748413085938 C 493.0948486328125 267.4297180175781 494.0311279296875 268.3660888671875 495.1860961914062 268.3660888671875 M 495.1860961914062 252.5 C 497.1663208007812 252.5 498.77734375 254.1110229492188 498.77734375 256.0912475585938 L 498.77734375 259.0011596679688 C 500.7630920410156 259.3465881347656 502.6815185546875 259.9710388183594 504.4963989257812 260.8639831542969 C 506.6558837890625 261.926513671875 508.6091003417969 263.3385314941406 510.3017578125 265.0608215332031 C 511.9957275390625 266.7844543457031 513.3741455078125 268.7633361816406 514.3987426757812 270.9424743652344 C 515.2579345703125 272.7698974609375 515.8477783203125 274.6964111328125 516.158447265625 276.6859436035156 L 518.4627685546875 276.6859436035156 C 520.4429931640625 276.6859436035156 522.0540161132812 278.2969665527344 522.0540161132812 280.2772216796875 C 522.0540161132812 282.2574462890625 520.4429931640625 283.8684692382812 518.4627685546875 283.8684692382812 L 516.06591796875 283.8684692382812 C 515.7115478515625 285.8056030273438 515.0909423828125 287.6771850585938 514.214599609375 289.4483947753906 C 513.1683349609375 291.5627746582031 511.7856140136719 293.479736328125 510.104736328125 295.1460571289062 C 508.4231872558594 296.8130493164062 506.4935607910156 298.1793212890625 504.3694458007812 299.2068786621094 C 502.5921325683594 300.0666809082031 500.7163696289062 300.6703186035156 498.77734375 301.0076599121094 L 498.77734375 303.5538940429688 C 498.77734375 305.5341186523438 497.1663208007812 307.1451416015625 495.1860961914062 307.1451416015625 C 493.2058715820312 307.1451416015625 491.5948486328125 305.5341186523438 491.5948486328125 303.5538940429688 L 491.5948486328125 301.0396118164062 C 489.6383056640625 300.7167053222656 487.744384765625 300.1231994628906 485.9483032226562 299.2689514160156 C 483.8026428222656 298.2484130859375 481.8524169921875 296.8834838867188 480.1517944335938 295.2120361328125 C 478.4525146484375 293.5419006347656 477.0545043945312 291.6170043945312 475.9966430664062 289.4907836914062 C 475.1091918945312 287.7070007324219 474.4816284179688 285.8212280273438 474.1243896484375 283.8684692382812 L 472.09130859375 283.8684692382812 C 470.1110229492188 283.8684692382812 468.5 282.2574462890625 468.5 280.2772216796875 C 468.5 278.2969665527344 470.1110229492188 276.6859436035156 472.09130859375 276.6859436035156 L 474.0320434570312 276.6859436035156 C 475.447021484375 267.6332092285156 482.5552673339844 260.4625244140625 491.5948486328125 258.9692993164062 L 491.5948486328125 256.0912475585938 C 491.5948486328125 254.1110229492188 493.2058715820312 252.5 495.1860961914062 252.5 Z M 495.1860961914062 269.8660888671875 C 493.2058715820312 269.8660888671875 491.5948486328125 268.2550659179688 491.5948486328125 266.2748413085938 L 491.5948486328125 265.3700561523438 C 486.0748596191406 266.7030029296875 481.6826477050781 271.1487731933594 480.418701171875 276.6859436035156 L 482.2748107910156 276.6859436035156 C 484.2550354003906 276.6859436035156 485.8660583496094 278.2969665527344 485.8660583496094 280.2772216796875 C 485.8660583496094 282.2574462890625 484.2550354003906 283.8684692382812 482.2748107910156 283.8684692382812 L 480.5501708984375 283.8684692382812 C 481.964599609375 289.202880859375 486.2251281738281 293.3601379394531 491.5948486328125 294.6412963867188 L 491.5948486328125 293.3703002929688 C 491.5948486328125 291.3900756835938 493.2058715820312 289.779052734375 495.1860961914062 289.779052734375 C 497.1663208007812 289.779052734375 498.77734375 291.3900756835938 498.77734375 293.3703002929688 L 498.77734375 294.59619140625 C 504.0538330078125 293.2629089355469 508.2404479980469 289.1274719238281 509.6394348144531 283.8684692382812 L 508.2792053222656 283.8684692382812 C 506.2989807128906 283.8684692382812 504.6879577636719 282.2574462890625 504.6879577636719 280.2772216796875 C 504.6879577636719 278.2969665527344 506.2989807128906 276.6859436035156 508.2792053222656 276.6859436035156 L 509.7755737304688 276.6859436035156 C 508.5355529785156 271.1452941894531 504.2831115722656 266.7874145507812 498.77734375 265.4103698730469 L 498.77734375 266.2748413085938 C 498.77734375 268.2550659179688 497.1663208007812 269.8660888671875 495.1860961914062 269.8660888671875 Z" stroke="none" fill="#fff"/>
    </g>
  </g>
</svg>
