<svg xmlns="http://www.w3.org/2000/svg" viewBox="0 0 42.554 39.615">
  <path id="map" d="M40.247,2.139a.732.732,0,0,0-.664-.1L26.51,6.4l-12.331-2.9a.641.641,0,0,0-.092,0,.75.75,0,0,0-.237,0L.577,6.442A.738.738,0,0,0,0,7.162V38.868a.738.738,0,0,0,.737.737.786.786,0,0,0,.16-.017l13.13-2.918,12.389,2.186a.686.686,0,0,0,.128.012.74.74,0,0,0,.26-.049s.005,0,.007,0l13.272-5.161a.739.739,0,0,0,.47-.688V2.738A.737.737,0,0,0,40.247,2.139ZM1.475,7.753l11.8-2.621V35.326l-11.8,2.622ZM14.747,5.143l11.06,2.6V37.251L14.747,35.3ZM39.079,32.465l-11.8,4.588V7.693l11.8-3.932Z" transform="translate(1 -0.989)" fill="#fff" stroke="#000" stroke-width="2"/>
</svg>
