<?xml version="1.0" encoding="UTF-8" standalone="no"?>
<!-- Created with Inkscape (http://www.inkscape.org/) -->

<svg
   version="1.1"
   id="svg1099"
   width="284.26001"
   height="195.19333"
   viewBox="0 0 284.26001 195.19333"
   xmlns="http://www.w3.org/2000/svg"
   xmlns:svg="http://www.w3.org/2000/svg">
  <defs
     id="defs1103">
    <clipPath
       clipPathUnits="userSpaceOnUse"
       id="clipPath1115">
      <path
         d="M 0,146.395 H 213.195 V 0 H 0 Z"
         id="path1113" />
    </clipPath>
  </defs>
  <g
     id="g1107"
     transform="matrix(1.3333333,0,0,-1.3333333,0,195.19333)">
    <g
       id="g1109">
      <g
         id="g1111"
         clip-path="url(#clipPath1115)">
        <g
           id="g1117"
           transform="translate(66.6737,96.8474)">
          <path
             d="m 0,0 c -0.69,0.268 -1.648,0.468 -2.695,0.468 -1.694,0 -2.696,-0.691 -2.696,-1.827 v -0.044 c 0,-1.114 1.002,-1.738 2.272,-1.738 1.783,0 3.119,1.002 3.119,2.473 z m -0.066,-4.924 v 1.448 c -0.803,-0.958 -2.028,-1.693 -3.81,-1.693 -2.228,0 -4.188,1.271 -4.188,3.632 v 0.044 c 0,2.607 2.027,3.854 4.767,3.854 1.426,0 2.339,-0.2 3.253,-0.489 v 0.222 c 0,1.626 -1.025,2.518 -2.896,2.518 -1.315,0 -2.295,-0.29 -3.365,-0.736 L -7.04,6.038 c 1.292,0.579 2.562,0.98 4.478,0.98 3.476,0 5.168,-1.827 5.168,-4.968 v -6.974 z"
             style="fill:#1d1e1c;fill-opacity:1;fill-rule:nonzero;stroke:none"
             id="path1119" />
        </g>
        <g
           id="g1121"
           transform="translate(72.4838,103.6868)">
          <path
             d="m 0,0 h 2.696 v -2.651 c 0.735,1.76 2.094,2.963 4.166,2.874 V -2.629 H 6.706 c -2.362,0 -4.01,-1.537 -4.01,-4.656 v -4.478 H 0 Z"
             style="fill:#1d1e1c;fill-opacity:1;fill-rule:nonzero;stroke:none"
             id="path1123" />
        </g>
        <g
           id="g1125"
           transform="translate(80.6346,97.7385)">
          <path
             d="m 0,0 v 0.044 c 0,3.342 2.584,6.149 6.104,6.149 2.228,0 3.609,-0.824 4.701,-2.027 L 9.134,2.361 C 8.31,3.23 7.44,3.832 6.082,3.832 4.121,3.832 2.695,2.139 2.695,0.089 V 0.044 c 0,-2.093 1.449,-3.787 3.52,-3.787 1.27,0 2.206,0.602 3.053,1.471 l 1.626,-1.604 C 9.735,-5.168 8.376,-6.083 6.082,-6.083 2.584,-6.083 0,-3.342 0,0"
             style="fill:#1d1e1c;fill-opacity:1;fill-rule:nonzero;stroke:none"
             id="path1127" />
        </g>
        <g
           id="g1129"
           transform="translate(93.9969,108.1868)">
          <path
             d="m 0,0 h 2.696 v -6.327 c 0.757,1.114 1.849,2.072 3.676,2.072 2.65,0 4.188,-1.782 4.188,-4.522 v -7.486 H 7.864 v 6.684 c 0,1.827 -0.913,2.873 -2.517,2.873 -1.559,0 -2.651,-1.091 -2.651,-2.918 v -6.639 H 0 Z"
             style="fill:#1d1e1c;fill-opacity:1;fill-rule:nonzero;stroke:none"
             id="path1131" />
        </g>
        <path
           d="m 107.961,103.687 h 2.695 V 91.924 h -2.695 z m -0.112,4.366 h 2.896 v -2.562 h -2.896 z"
           style="fill:#1d1e1c;fill-opacity:1;fill-rule:nonzero;stroke:none"
           id="path1133" />
        <g
           id="g1135"
           transform="translate(113.1932,103.6868)">
          <path
             d="M 0,0 H 2.763 L 5.125,-8.064 7.73,0.044 h 2.295 L 12.654,-8.064 15.061,0 h 2.695 L 13.902,-11.852 H 11.496 L 8.867,-3.81 6.216,-11.852 H 3.811 Z"
             style="fill:#1d1e1c;fill-opacity:1;fill-rule:nonzero;stroke:none"
             id="path1137" />
        </g>
        <g
           id="g1139"
           transform="translate(133.2147,96.2014)">
          <path
             d="M 0,0 V 7.485 H 2.695 V 0.802 c 0,-1.827 0.914,-2.874 2.518,-2.874 1.559,0 2.651,1.092 2.651,2.919 V 7.485 H 10.56 V -4.278 H 7.864 v 1.827 C 7.106,-3.565 6.016,-4.523 4.188,-4.523 1.537,-4.523 0,-2.741 0,0"
             style="fill:#1d1e1c;fill-opacity:1;fill-rule:nonzero;stroke:none"
             id="path1141" />
        </g>
        <g
           id="g1143"
           transform="translate(147.1561,103.6868)">
          <path
             d="m 0,0 h 2.695 v -1.782 c 0.758,1.047 1.783,2.027 3.587,2.027 1.694,0 2.874,-0.824 3.498,-2.072 0.958,1.248 2.205,2.072 3.988,2.072 2.562,0 4.121,-1.626 4.121,-4.5 v -7.508 h -2.696 v 6.684 c 0,1.871 -0.869,2.873 -2.383,2.873 -1.47,0 -2.517,-1.024 -2.517,-2.918 v -6.639 H 7.597 v 6.706 c 0,1.827 -0.892,2.851 -2.384,2.851 -1.492,0 -2.518,-1.113 -2.518,-2.94 v -6.617 H 0 Z"
             style="fill:#1d1e1c;fill-opacity:1;fill-rule:nonzero;stroke:none"
             id="path1145" />
        </g>
        <g
           id="g1147"
           transform="translate(59.411,78.4929)">
          <path
             d="m 0,0 h 2.696 v -6.327 c 0.757,1.114 1.849,2.072 3.676,2.072 2.65,0 4.188,-1.782 4.188,-4.522 v -7.486 H 7.864 v 6.683 c 0,1.827 -0.913,2.874 -2.517,2.874 -1.559,0 -2.651,-1.092 -2.651,-2.918 v -6.639 H 0 Z"
             style="fill:#1d1e1c;fill-opacity:1;fill-rule:nonzero;stroke:none"
             id="path1149" />
        </g>
        <path
           d="M 73.375,73.993 H 76.07 V 62.23 h -2.695 z m -0.111,4.366 h 2.896 v -2.562 h -2.896 z"
           style="fill:#1d1e1c;fill-opacity:1;fill-rule:nonzero;stroke:none"
           id="path1151" />
        <g
           id="g1153"
           transform="translate(78.6298,63.7673)">
          <path
             d="m 0,0 1.203,1.826 c 1.27,-0.958 2.651,-1.447 3.855,-1.447 1.158,0 1.826,0.489 1.826,1.269 V 1.693 C 6.884,2.606 5.637,2.918 4.255,3.342 2.518,3.832 0.58,4.545 0.58,6.795 v 0.044 c 0,2.227 1.849,3.587 4.188,3.587 1.47,0 3.074,-0.513 4.322,-1.337 L 8.021,7.173 C 6.884,7.864 5.681,8.287 4.701,8.287 3.654,8.287 3.052,7.797 3.052,7.106 V 7.062 C 3.052,6.215 4.322,5.858 5.703,5.413 7.419,4.879 9.357,4.099 9.357,1.982 V 1.937 C 9.357,-0.535 7.441,-1.76 4.99,-1.76 3.32,-1.76 1.471,-1.158 0,0"
             style="fill:#1d1e1c;fill-opacity:1;fill-rule:nonzero;stroke:none"
             id="path1155" />
        </g>
        <g
           id="g1157"
           transform="translate(91.0575,65.4822)">
          <path
             d="M 0,0 V 6.193 H -1.493 V 8.511 H 0 v 3.23 H 2.696 V 8.511 H 5.859 V 6.193 H 2.696 V 0.424 c 0,-1.047 0.534,-1.471 1.448,-1.471 0.601,0 1.136,0.134 1.67,0.401 V -2.852 C 5.146,-3.229 4.389,-3.453 3.386,-3.453 1.403,-3.453 0,-2.584 0,0"
             style="fill:#1d1e1c;fill-opacity:1;fill-rule:nonzero;stroke:none"
             id="path1159" />
        </g>
        <g
           id="g1161"
           transform="translate(108.4979,68.0447)">
          <path
             d="m 0,0 v 0.044 c 0,2.072 -1.492,3.788 -3.609,3.788 -2.161,0 -3.542,-1.693 -3.542,-3.743 V 0.044 c 0,-2.049 1.493,-3.787 3.587,-3.787 C -1.381,-3.743 0,-2.027 0,0 m -9.847,0 v 0.044 c 0,3.364 2.674,6.149 6.283,6.149 3.609,0 6.259,-2.74 6.259,-6.104 V 0.044 c 0,-3.341 -2.673,-6.126 -6.304,-6.126 -3.587,0 -6.238,2.74 -6.238,6.082"
             style="fill:#1d1e1c;fill-opacity:1;fill-rule:nonzero;stroke:none"
             id="path1163" />
        </g>
        <g
           id="g1165"
           transform="translate(113.9286,73.9929)">
          <path
             d="M 0,0 H 2.696 V -2.651 C 3.431,-0.892 4.79,0.312 6.862,0.223 V -2.629 H 6.706 c -2.361,0 -4.01,-1.537 -4.01,-4.656 v -4.478 H 0 Z"
             style="fill:#1d1e1c;fill-opacity:1;fill-rule:nonzero;stroke:none"
             id="path1167" />
        </g>
        <path
           d="m 123.282,73.993 h 2.696 V 62.23 h -2.696 z m -0.111,4.366 h 2.896 v -2.562 h -2.896 z"
           style="fill:#1d1e1c;fill-opacity:1;fill-rule:nonzero;stroke:none"
           id="path1169" />
        <path
           d="m 129.652,73.993 h 2.695 V 62.23 h -2.695 z m -0.111,4.366 h 2.896 v -2.562 h -2.896 z"
           style="fill:#1d1e1c;fill-opacity:1;fill-rule:nonzero;stroke:none"
           id="path1171" />
        <g
           id="g1173"
           transform="translate(59.411,44.2986)">
          <path
             d="m 0,0 h 2.696 v -1.782 c 0.757,1.047 1.782,2.027 3.587,2.027 1.693,0 2.873,-0.824 3.497,-2.071 0.958,1.247 2.206,2.071 3.988,2.071 2.562,0 4.122,-1.626 4.122,-4.5 v -7.508 h -2.696 v 6.684 c 0,1.871 -0.869,2.874 -2.384,2.874 -1.47,0 -2.518,-1.025 -2.518,-2.919 v -6.639 H 7.597 v 6.706 c 0,1.827 -0.891,2.852 -2.384,2.852 -1.492,0 -2.517,-1.114 -2.517,-2.941 v -6.617 H 0 Z"
             style="fill:#1d1e1c;fill-opacity:1;fill-rule:nonzero;stroke:none"
             id="path1175" />
        </g>
        <g
           id="g1177"
           transform="translate(87.4296,49.4451)">
          <path
             d="M 0,0 2.451,-1.092 -0.29,-3.653 h -2.027 z m 2.339,-11.095 v 0.045 c 0,2.071 -1.492,3.787 -3.609,3.787 -2.161,0 -3.542,-1.693 -3.542,-3.742 v -0.045 c 0,-2.05 1.493,-3.787 3.586,-3.787 2.184,0 3.565,1.715 3.565,3.742 m -9.847,0 v 0.045 c 0,3.364 2.674,6.149 6.282,6.149 3.61,0 6.261,-2.741 6.261,-6.104 v -0.045 c 0,-3.342 -2.674,-6.127 -6.305,-6.127 -3.586,0 -6.238,2.74 -6.238,6.082"
             style="fill:#1d1e1c;fill-opacity:1;fill-rule:nonzero;stroke:none"
             id="path1179" />
        </g>
        <g
           id="g1181"
           transform="translate(93.663,44.2986)">
          <path
             d="M 0,0 H 2.763 L 5.124,-8.064 7.73,0.045 h 2.294 L 12.653,-8.064 15.06,0 h 2.695 L 13.901,-11.852 H 11.495 L 8.866,-3.81 6.216,-11.852 H 3.81 Z"
             style="fill:#1d1e1c;fill-opacity:1;fill-rule:nonzero;stroke:none"
             id="path1183" />
        </g>
        <path
           d="m 113.974,44.299 h 2.696 V 32.536 h -2.696 z m -0.112,4.366 h 2.896 v -2.562 h -2.896 z"
           style="fill:#1d1e1c;fill-opacity:1;fill-rule:nonzero;stroke:none"
           id="path1185" />
        <g
           id="g1187"
           transform="translate(129.3876,38.3504)">
          <path
             d="m 0,0 v 0.045 c 0,2.071 -1.493,3.787 -3.608,3.787 -2.163,0 -3.543,-1.693 -3.543,-3.742 V 0.045 c 0,-2.05 1.493,-3.787 3.587,-3.787 C -1.381,-3.742 0,-2.027 0,0 m -9.847,0 v 0.045 c 0,3.364 2.674,6.148 6.283,6.148 3.609,0 6.26,-2.74 6.26,-6.103 V 0.045 c 0,-3.342 -2.674,-6.127 -6.304,-6.127 -3.588,0 -6.239,2.74 -6.239,6.082"
             style="fill:#1d1e1c;fill-opacity:1;fill-rule:nonzero;stroke:none"
             id="path1189" />
        </g>
        <g
           id="g1191"
           transform="translate(134.8182,44.2986)">
          <path
             d="m 0,0 h 2.696 v -1.826 c 0.757,1.113 1.849,2.071 3.676,2.071 2.651,0 4.189,-1.782 4.189,-4.522 v -7.486 H 7.864 v 6.684 c 0,1.827 -0.913,2.874 -2.516,2.874 -1.561,0 -2.652,-1.092 -2.652,-2.919 v -6.639 H 0 Z"
             style="fill:#1d1e1c;fill-opacity:1;fill-rule:nonzero;stroke:none"
             id="path1193" />
        </g>
        <g
           id="g1195"
           transform="translate(156.6913,39.242)">
          <path
             d="M 0,0 C -0.179,1.737 -1.203,3.097 -2.986,3.097 -4.635,3.097 -5.793,1.826 -6.038,0 Z m -8.711,-0.869 v 0.045 c 0,3.363 2.383,6.126 5.747,6.126 3.743,0 5.637,-2.941 5.637,-6.327 0,-0.246 -0.023,-0.49 -0.045,-0.757 h -8.644 c 0.289,-1.916 1.649,-2.986 3.387,-2.986 1.315,0 2.25,0.491 3.186,1.404 l 1.582,-1.404 c -1.115,-1.336 -2.652,-2.206 -4.813,-2.206 -3.408,0 -6.037,2.474 -6.037,6.105"
             style="fill:#1d1e1c;fill-opacity:1;fill-rule:nonzero;stroke:none"
             id="path1197" />
        </g>
        <path
           d="m 162.122,48.665 h 2.896 v -2.562 h -2.896 z m -1.916,-19.649 v 2.162 c 0.268,-0.045 0.513,-0.068 0.757,-0.068 0.758,0 1.27,0.401 1.27,1.426 v 11.763 h 2.696 V 32.381 c 0,-2.384 -1.226,-3.476 -3.431,-3.476 -0.512,0 -0.869,0.044 -1.292,0.111"
           style="fill:#1d1e1c;fill-opacity:1;fill-rule:nonzero;stroke:none"
           id="path1199" />
        <g
           id="g1201"
           transform="translate(38.0433,119.2063)">
          <path
             d="m 0,0 c 0,-4.575 -3.709,-8.284 -8.285,-8.284 -4.575,0 -8.284,3.709 -8.284,8.284 0,4.576 3.709,8.285 8.284,8.285 C -3.709,8.285 0,4.576 0,0"
             style="fill:#e6391e;fill-opacity:1;fill-rule:nonzero;stroke:none"
             id="path1203" />
        </g>
      </g>
    </g>
  </g>
</svg>
