<?xml version="1.0" encoding="UTF-8"?>
<svg id="Layer_2" data-name="Layer 2" xmlns="http://www.w3.org/2000/svg" viewBox="0 0 360 720">
  <g id="Layer_1-2" data-name="Layer 1">
    <g id="pionowy_angielski" data-name="pionowy angielski">
      <g>
        <path d="M180,630c9.27-26.21,34.25-45,63.66-45h71.35s0,0,0,0c24.85,0,44.99-20.14,44.99-45.01V180H0v360c0,24.87,20.14,45.01,44.99,45.01H116.3s0,0,0,0h.03c29.41,0,54.39,18.79,63.66,45h0Z" fill="#e62314"/>
        <g>
          <path d="M258.75,45c-7.52,0-14.55,2.05-20.62,5.56-6.07-3.52-13.1-5.56-20.62-5.56-8.32,0-16.06,2.48-22.54,6.73-.41-7.92-6.94-14.23-14.96-14.23s-14.56,6.3-14.96,14.23c-6.48-4.24-14.22-6.73-22.54-6.73-7.52,0-14.55,2.05-20.63,5.56-6.07-3.52-13.1-5.56-20.62-5.56-22.78,0-41.25,18.47-41.25,41.25s18.47,41.25,41.25,41.25l9.01,22.5H249.57l9.18-22.5c22.78,0,41.25-18.47,41.25-41.25s-18.47-41.25-41.25-41.25m-45.8,5.62c13.46,0,24.38,10.91,24.38,24.38s-10.91,24.38-24.38,24.38-24.38-10.91-24.38-24.38,10.91-24.38,24.38-24.38m-65.89,0c13.46,0,24.37,10.91,24.37,24.38s-10.91,24.38-24.37,24.38-24.38-10.91-24.38-24.38,10.91-24.38,24.38-24.38m-65.63,24.38c0-13.46,10.91-24.38,24.38-24.38,4.2,0,8.15,1.06,11.61,2.93-9.81,7.54-16.16,19.36-16.16,32.69,0,4.55,.76,8.91,2.12,13-12.32-1.22-21.95-11.61-21.95-24.25m175.2,24.25c1.36-4.09,2.12-8.45,2.12-13,0-13.33-6.35-25.15-16.16-32.69,3.45-1.87,7.4-2.93,11.6-2.93,13.46,0,24.38,10.91,24.38,24.38,0,12.64-9.62,23.03-21.94,24.25" fill="#ffc837"/>
          <path d="M176.1,21.79l-4.75,8.21h17.35l-4.74-8.21c1.19-.69,2.18-1.67,2.87-2.87l8.19,4.75V6.34l-8.19,4.74c-.69-1.19-1.67-2.18-2.87-2.87l4.75-8.21h-17.35l4.75,8.21c-1.19,.69-2.17,1.67-2.87,2.86l-8.22-4.73V23.66l8.22-4.74c.7,1.19,1.68,2.17,2.88,2.86" fill="#ffc837"/>
        </g>
        <g>
          <path d="M196.83,324.36c.25-.51,.48-1.03,.74-1.53,2.77-5.37,6.46-10.21,10.77-14.39-5.69-2.38-28.92-12.11-31.88-13.4-7.13-3.11-2.12-18.12-1.44-23.14-15.78-2.27-15.97-27.48-24.31-30.76h0c-3.67,2.04-4.8,4.95-5.51,9.68-.32,2.16,.51,2.61-1.34,4.8-.92,1.09-4.47,3.32-4.65,4.28-.34,1.82,2.94,2.56,3.47,2.72-.04,.78-.83,1.96-.85,3.46-.02,1.53,.83,2.12,.7,3.04-.23,1.56-1.53,3.31-.49,4.64,.53,.67,1.8,1.26,3.35,1.75,4.57,.98,9.86,0,14.44-.92,.11-.03,.24,.04,.27,.15-.76,1.24-2.34,1.97-3.52,2.77-.91,.46-1.8,.9-2.69,1.3,.5,3.92-1.04,12.62-2.58,12.43-17.52-2.16-24.7-10.11-50.8-18.32,1.33-12.88,7.09-36.38,9.01-43.64-1.62-.5-3.19-1.14-4.53-1.97,.05,0,.1,0,.15,.01,2.02,.47,4.61,.1,5.77-.04,2.17-.26,6.2-1.22,7.13-2.01,.38-.33,1.41-2.82,2.16-5.73l6.1-.1v2.42l1.17,9.61h6.89v-10.39c1.77-.08,20.98-.89,45.52-.89,59.04,0,82.35,16.17,96.47,31.1v-3.66c-9.42-19.67-38.04-37.63-96.47-37.63h-40.15c-1.99,3.36-4.22,8.17-5.36,10.71v-21.11h-6.89l-1.17,9.21v2.81l-4.97-.1c.1-1.17,.15-2.09,.08-2.38-1.52-.59-3.29,.86-3.72,2.18-.29,.89-2.55,8.05-2.55,8.05h-5.81c-.11,0-.21,.02-.32,.02,.29-.24,.52-.55,.61-.95l.16-.72c.11,.07,.21,.16,.35,.21,.9,.32,1.89-.16,2.21-1.06,0,0,1.21-3.55,1.54-4.54,.33-.98,1-1.02,1.6-1.02h2.22c0-1.5-2.62-4.32-2.62-4.32-.86-.86-2.26-.86-3.13,0-.11,.1-.16,.24-.24,.36-.46-.57-1-1.05-1-1.05-.89-.89-2.33-.89-3.23,0-.22,.22-.38,.46-.49,.73-.41-.53-1.01-.88-1.72-.88-1.22,0-2.21,.99-2.21,2.21,0,.02,.02,.04,.02,.06-.32-.17-.68-.29-1.07-.26-1.12,.07-1.96,1.04-1.88,2.16l.05,.77-10.3-.16v9.18l7.36-.1c-.16,1.14-.32,2.58-.2,3.25,.22,1.2,.77,1.83,1.11,2.48,.23,8.24-17.54,45.57-14.02,54.39,3.88,9.7,46.12,21.5,42.72,29.98-3.01,7.58-8.46,13.28-7.51,17.17,.9,3.77,3.01,6.85,5.9,8.38h0c1.47,.88,3.08,1.52,4.64,1.86,.18,.06,.19-.1,.3,.26,.02,.35-.11,.24-.54,.4-1.46,.35-2.99,.38-4.49,.21v23.22l-.12-.03c-9.86,9.86-17.99,20.62-23.96,32.53,19.42,18.95,49.31,24.96,75.31,13.09-.49-13.65-3.48-23.05-8.61-35.74,0,0,20.53-42.9,23.01-45.45,1.9-1.92,4.28-2.01,6.06-1.69m-49.04,15.76l.6-.38c2.46,3.5,6.52,5.81,11.13,5.81,6.52,0,11.95-4.59,13.28-10.7,.27,.04,.8,.13,.8,.13,2.71,16.37-16.84,24.58-25.81,5.14" fill="#fff"/>
          <path d="M191.65,259.93c1.91,2.08,5.74,2.5,10.49,1.28h0s0,0,0,0c-2.61,4.09-6.4,6.8-10.46,8.63-6.06,2.15-11.66,2.5-16.67,2.06-15.78-2.27-15.97-27.48-24.31-30.76-2.09-1.97,2.23-4.7,5.12-5.74,6.65-2.39,15.14-1.01,22.36,3.31,9.22,5.52,11.02,12.54,28.23,11.5-.23,6.71-11.17,10.41-14.78,9.72" fill="#ffc837"/>
          <path d="M209.61,307.18c-4.88,4.44-8.99,9.74-12.04,15.65-4.05,7.74-6.32,16.55-6.32,25.91,0,31.09,25.18,56.26,56.24,56.26s56.26-25.18,56.26-56.26-25.18-56.24-56.26-56.24c-14.6,0-27.89,5.57-37.88,14.68" fill="#ffc837"/>
          <path d="M229.67,448.4c-12.86-8.1-30.01-3.99-38.3,9.18,17.6,0,31.88,14.27,31.88,31.88s-14.27,31.87-31.88,31.87-31.88-14.27-31.88-31.87c0-28.88,16.98-52.12,16.98-78.27,0-1.38-.05-2.65-.1-3.94-26,11.87-55.89,5.86-75.31-13.09-7.17,14.31-11.2,30.27-11.2,48.35h0c0,69.29,40.42,112.5,90.13,112.5h0c37.28,0,69.5-27.61,69.5-69.03,0-35.06,5.63-47.81,14.58-56.75-15.02-4.08-30.42,4.51-34.4,19.18" fill="#ffc837"/>
        </g>
      </g>
      <g>
        <path d="M83.61,659.64c1.09,0,1.49,.69,1.1,1.78l-20.58,57.22c-.22,.66-.83,1.1-1.7,1.1h-2.31c-.83,0-1.48-.39-1.74-1.1l-15.94-40.4-15.94,40.4c-.26,.71-.92,1.1-1.75,1.1h-2.31c-.87,0-1.48-.43-1.7-1.1L.15,661.42c-.39-1.09,0-1.78,1.09-1.78H9.49c.82,0,1.4,.31,1.7,1.1l13.09,39.4,15.46-39.4c.22-.62,.88-1.1,1.7-1.1h1.97c.83,0,1.49,.48,1.7,1.1l15.46,39.4,13.09-39.4c.3-.79,.88-1.1,1.7-1.1h8.25Z"/>
        <path d="M113.24,720c-11.2,0-21.53-8.94-21.53-22.4s10.33-22.4,21.53-22.4c6.71,0,11.49,2.88,14.5,7.68v-5.31c0-.87,.64-1.5,1.5-1.5h6.37c.87,0,1.51,.64,1.51,1.5v40.07c0,.87-.64,1.5-1.51,1.5h-6.37c-.87,0-1.5-.64-1.5-1.5v-5.31c-3.01,4.8-7.78,7.68-14.5,7.68h0Zm-11.27-22.4c0,8.71,6.02,13.79,12.88,13.79,7.39,0,12.88-5.58,12.88-13.79s-5.49-13.79-12.88-13.79c-6.86,0-12.88,5.08-12.88,13.79h0Z"/>
        <path d="M177.16,675.21c1.16,0,1.6,.31,1.6,1.5v8.41c0,.91-.38,1.54-1.71,1.22-5.57-1.33-13.34,2.97-13.34,13.79v17.5c0,.87-.64,1.5-1.5,1.5h-6.82c-.87,0-1.5-.64-1.5-1.5v-40.07c0-.87,.64-1.5,1.5-1.5h6.37c.87,0,1.5,.64,1.5,1.5v9.02c3.98-8.3,10.13-11.37,13.9-11.37h0Z"/>
        <path d="M198.02,687.97c0,8.56,25.12,2.32,25.12,18.73,0,8.72-8.66,13.3-19.04,13.3-6.31,0-11.67-1.55-16.78-4.78-.76-.45-1.09-1.1-.7-2l2.27-5.02c.36-.81,1.1-1.3,2.01-.78,3.85,2.2,7.64,4.53,13.3,4.53,5.18,0,8.63-1.32,8.63-4.18,0-8.44-24.59-2.57-24.59-19,0-8.43,6.77-13.57,18.38-13.57,5.88,0,10.04,1.32,14.22,3.57,.75,.4,1.13,1.09,.7,2l-2.29,4.97c-.32,.74-.91,1.17-1.88,.62-2.72-1.59-6.15-3.11-10.61-3.11-5.9,0-8.75,1.78-8.75,4.71h0Z"/>
        <path d="M256.85,720c-11.2,0-21.53-8.94-21.53-22.4s10.33-22.4,21.53-22.4c6.71,0,11.49,2.88,14.5,7.68v-5.31c0-.87,.64-1.5,1.5-1.5h6.37c.87,0,1.51,.64,1.51,1.5v40.07c0,.87-.64,1.5-1.51,1.5h-6.37c-.87,0-1.5-.64-1.5-1.5v-5.31c-3.01,4.8-7.79,7.68-14.5,7.68h0Zm-11.27-22.4c0,8.71,6.02,13.79,12.88,13.79,7.39,0,12.88-5.58,12.88-13.79s-5.49-13.79-12.88-13.79c-6.86,0-12.88,5.08-12.88,13.79h0Z"/>
        <path d="M326.71,676.06c.54,0,.79,.23,1.14,.97l12.11,25.08,9.4-24.4c.5-1.26,.9-1.65,2.57-1.65h6.52c1.38,0,1.87,.86,1.35,2.17l-16.3,40.54c-.39,.95-.79,1.18-1.33,1.18h-1.5c-.51,0-.95-.31-1.34-1.13l-13.53-27.69-13.53,27.69c-.39,.82-.83,1.13-1.34,1.13h-1.5c-.54,0-.95-.23-1.33-1.18l-16.3-40.54c-.52-1.31-.03-2.17,1.35-2.17h6.52c1.67,0,2.07,.39,2.57,1.65l9.4,24.4,12.12-25.08c.34-.74,.59-.97,1.13-.97h1.82Z"/>
      </g>
    </g>
  </g>
</svg>