<?xml version="1.0" encoding="UTF-8" standalone="no"?>
<!-- Generator: Adobe Illustrator 27.2.0, SVG Export Plug-In . SVG Version: 6.00 Build 0)  -->

<svg
   version="1.1"
   id="Layer_1"
   x="0px"
   y="0px"
   viewBox="0 0 360 720"
   xml:space="preserve"
   width="360"
   height="720"
   xmlns="http://www.w3.org/2000/svg"
   xmlns:svg="http://www.w3.org/2000/svg"><defs
   id="defs864" />
<style
   type="text/css"
   id="style832">
	.st0{fill:#FEED00;}
</style>
<g
   id="pionowy_angielski"
   transform="matrix(0.99944753,0,0,0.99916736,-179.70067,-179.35054)">
	<g
   id="g858">
		<g
   id="g846">
			<path
   class="st0"
   d="m 263.6,839.6 c 1.1,0 1.5,0.7 1.1,1.8 l -20.6,57.2 c -0.2,0.7 -0.8,1.1 -1.7,1.1 h -2.3 c -0.8,0 -1.5,-0.4 -1.7,-1.1 l -15.9,-40.4 -15.9,40.4 c -0.3,0.7 -0.9,1.1 -1.7,1.1 h -2.3 c -0.9,0 -1.5,-0.4 -1.7,-1.1 l -20.6,-57.2 c -0.4,-1.1 0,-1.8 1.1,-1.8 h 8.3 c 0.8,0 1.4,0.3 1.7,1.1 l 13.1,39.4 15.5,-39.4 c 0.2,-0.6 0.9,-1.1 1.7,-1.1 h 2 c 0.8,0 1.5,0.5 1.7,1.1 l 15.5,39.4 13.1,-39.4 c 0.3,-0.8 0.9,-1.1 1.7,-1.1 z"
   id="path834" />
			<path
   class="st0"
   d="m 293.2,900 c -11.2,0 -21.5,-8.9 -21.5,-22.4 0,-13.5 10.3,-22.4 21.5,-22.4 6.7,0 11.5,2.9 14.5,7.7 v -5.3 c 0,-0.9 0.6,-1.5 1.5,-1.5 h 6.4 c 0.9,0 1.5,0.6 1.5,1.5 v 40.1 c 0,0.9 -0.6,1.5 -1.5,1.5 h -6.4 c -0.9,0 -1.5,-0.6 -1.5,-1.5 v -5.3 c -3,4.7 -7.7,7.6 -14.5,7.6 z M 282,877.6 c 0,8.7 6,13.8 12.9,13.8 7.4,0 12.9,-5.6 12.9,-13.8 0,-8.2 -5.5,-13.8 -12.9,-13.8 -6.9,0 -12.9,5.1 -12.9,13.8 z"
   id="path836" />
			<path
   class="st0"
   d="m 357.2,855.2 c 1.2,0 1.6,0.3 1.6,1.5 v 8.4 c 0,0.9 -0.4,1.5 -1.7,1.2 -5.6,-1.3 -13.3,3 -13.3,13.8 v 17.5 c 0,0.9 -0.6,1.5 -1.5,1.5 h -6.8 c -0.9,0 -1.5,-0.6 -1.5,-1.5 v -40.1 c 0,-0.9 0.6,-1.5 1.5,-1.5 h 6.4 c 0.9,0 1.5,0.6 1.5,1.5 v 9 c 3.8,-8.2 10,-11.3 13.8,-11.3 z"
   id="path838" />
			<path
   class="st0"
   d="m 378,868 c 0,8.6 25.1,2.3 25.1,18.7 0,8.7 -8.7,13.3 -19,13.3 -6.3,0 -11.7,-1.6 -16.8,-4.8 -0.8,-0.4 -1.1,-1.1 -0.7,-2 l 2.3,-5 c 0.4,-0.8 1.1,-1.3 2,-0.8 3.8,2.2 7.6,4.5 13.3,4.5 5.2,0 8.6,-1.3 8.6,-4.2 0,-8.4 -24.6,-2.6 -24.6,-19 0,-8.4 6.8,-13.6 18.4,-13.6 5.9,0 10,1.3 14.2,3.6 0.7,0.4 1.1,1.1 0.7,2 l -2.3,5 c -0.3,0.7 -0.9,1.2 -1.9,0.6 -2.7,-1.6 -6.2,-3.1 -10.6,-3.1 -5.8,0.1 -8.7,1.8 -8.7,4.8 z"
   id="path840" />
			<path
   class="st0"
   d="m 436.8,900 c -11.2,0 -21.5,-8.9 -21.5,-22.4 0,-13.5 10.3,-22.4 21.5,-22.4 6.7,0 11.5,2.9 14.5,7.7 v -5.3 c 0,-0.9 0.6,-1.5 1.5,-1.5 h 6.4 c 0.9,0 1.5,0.6 1.5,1.5 v 40.1 c 0,0.9 -0.6,1.5 -1.5,1.5 h -6.4 c -0.9,0 -1.5,-0.6 -1.5,-1.5 v -5.3 c -3,4.7 -7.7,7.6 -14.5,7.6 z m -11.2,-22.4 c 0,8.7 6,13.8 12.9,13.8 7.4,0 12.9,-5.6 12.9,-13.8 0,-8.2 -5.5,-13.8 -12.9,-13.8 -6.9,0 -12.9,5.1 -12.9,13.8 z"
   id="path842" />
			<path
   class="st0"
   d="m 506.7,856.1 c 0.5,0 0.8,0.2 1.1,1 l 12.1,25.1 9.4,-24.4 c 0.5,-1.3 0.9,-1.6 2.6,-1.6 h 6.5 c 1.4,0 1.9,0.9 1.3,2.2 l -16.3,40.5 c -0.4,1 -0.8,1.2 -1.3,1.2 h -1.5 c -0.5,0 -1,-0.3 -1.3,-1.1 L 505.8,871.3 492.3,899 c -0.4,0.8 -0.8,1.1 -1.3,1.1 h -1.5 c -0.5,0 -0.9,-0.2 -1.3,-1.2 l -16.3,-40.5 c -0.5,-1.3 0,-2.2 1.4,-2.2 h 6.5 c 1.7,0 2.1,0.4 2.6,1.6 l 9.4,24.4 12.1,-25.1 c 0.3,-0.7 0.6,-1 1.1,-1 z"
   id="path844" />
		</g>
		<g
   id="g856">
			<path
   class="st0"
   d="m 532.5,367.2 v 352.7 c 0,20.7 -16.8,37.5 -37.5,37.5 h -4.3 -66.9 -0.1 v 0 h -0.2 -0.1 v 0 c -26.1,0.1 -49.9,13.8 -63.4,35.3 -13.4,-21.5 -37.3,-35.2 -63.3,-35.3 v 0 H 296.3 225 c -20.7,0 -37.5,-16.8 -37.5,-37.5 V 367.2 Z m 7.5,-7.5 H 179.8 v 360.2 c 0,24.9 20.2,45 45,45 h 71.4 v 0 0 c 29.4,0 54.4,18.8 63.7,45 9.3,-26.2 34.3,-45 63.7,-45 v 0 0 H 495 v 0 c 24.9,0 45,-20.2 45,-45 z M 359.9,810 v 0 0 c 0,0 0,0 0,0"
   id="path848" />
			<path
   class="st0"
   d="m 438.7,224.6 c -7.5,0 -14.6,2 -20.6,5.6 -6.1,-3.5 -13.1,-5.6 -20.6,-5.6 -8.3,0 -16.1,2.5 -22.6,6.7 -0.4,-7.9 -6.9,-14.2 -15,-14.2 -8,0 -14.6,6.3 -15,14.2 -6.5,-4.2 -14.2,-6.7 -22.6,-6.7 -7.5,0 -14.6,2 -20.6,5.6 -6.1,-3.5 -13.1,-5.6 -20.6,-5.6 -22.8,0 -41.3,18.5 -41.3,41.3 0,22.8 18.5,41.3 41.3,41.3 l 9,22.5 h 139.4 l 9.2,-22.5 c 22.8,0 41.3,-18.5 41.3,-41.3 0,-22.8 -18.5,-41.3 -41.3,-41.3 m -45.8,5.7 c 13.5,0 24.4,10.9 24.4,24.4 0,13.5 -10.9,24.4 -24.4,24.4 -13.5,0 -24.4,-10.9 -24.4,-24.4 0,-13.5 10.9,-24.4 24.4,-24.4 m -66,0 c 13.5,0 24.4,10.9 24.4,24.4 0,13.5 -10.9,24.4 -24.4,24.4 -13.5,0 -24.4,-10.9 -24.4,-24.4 0,-13.5 11,-24.4 24.4,-24.4 m -65.6,24.3 c 0,-13.5 10.9,-24.4 24.4,-24.4 4.2,0 8.2,1.1 11.6,2.9 -9.8,7.5 -16.2,19.4 -16.2,32.7 0,4.6 0.8,8.9 2.1,13 -12.3,-1.1 -21.9,-11.5 -21.9,-24.2 m 175.3,24.3 c 1.4,-4.1 2.1,-8.5 2.1,-13 0,-13.3 -6.4,-25.2 -16.2,-32.7 3.5,-1.9 7.4,-2.9 11.6,-2.9 13.5,0 24.4,10.9 24.4,24.4 0,12.6 -9.6,23 -21.9,24.2"
   id="path850" />
			<path
   class="st0"
   d="m 356,201.4 -4.8,8.2 h 17.4 l -4.7,-8.2 c 1.2,-0.7 2.2,-1.7 2.9,-2.9 l 8.2,4.7 v -17.3 l -8.2,4.7 c -0.7,-1.2 -1.7,-2.2 -2.9,-2.9 l 4.8,-8.2 h -17.4 l 4.8,8.2 c -1.2,0.7 -2.2,1.7 -2.9,2.9 l -8.2,-4.7 v 17.3 l 8.2,-4.7 c 0.6,1.2 1.6,2.2 2.8,2.9"
   id="path852" />
			<path
   class="st0"
   d="m 427.4,584.8 c 31.1,0 56.3,-25.2 56.3,-56.3 0,-31.1 -25.2,-56.3 -56.3,-56.3 -14.6,0 -27.9,5.6 -37.9,14.7 -0.4,0.4 -0.8,0.8 -1.3,1.3 -5.7,-2.4 -28.9,-12.1 -31.9,-13.4 -6.2,-2.7 -3.2,-14.6 -1.9,-20.8 -4.9,-2.7 -8.7,-7.1 -10.4,-13 l 0.2,-0.1 c 1.4,2.2 2.9,4.3 4.7,5.9 6.3,6 14.8,5.1 22.5,2.8 3,-1.4 5.9,-3.2 8.3,-5.8 0.8,-0.9 1.5,-1.8 2.2,-2.8 -4.8,1.2 -8.6,0.8 -10.5,-1.3 3.6,0.7 14.6,-3 14.8,-9.7 -17.2,1 -19,-6 -28.2,-11.5 -7.2,-4.3 -15.7,-5.7 -22.4,-3.3 -2.9,1 -7.2,3.8 -5.1,5.7 -3.7,2 -4.8,5 -5.5,9.7 -0.3,2.2 0.5,2.6 -1.3,4.8 -0.9,1.1 -4.5,3.3 -4.7,4.3 -0.3,1.8 2.9,2.6 3.5,2.7 0,0.8 -0.8,2 -0.8,3.5 0,1.5 0.8,2.1 0.7,3 -0.2,1.6 -1.5,3.3 -0.5,4.6 0.5,0.7 1.8,1.3 3.4,1.8 4.6,1 9.9,0 14.4,-0.9 0.1,0 0.2,0 0.3,0.2 -0.8,1.2 -2.3,2 -3.5,2.8 -0.9,0.5 -1.8,0.9 -2.7,1.3 0.5,3.9 -1,12.6 -2.6,12.4 -17.5,-2.2 -24.7,-10.1 -50.8,-18.3 1.3,-12.9 7.1,-36.4 9,-43.7 -1.6,-0.5 -3.2,-1.1 -4.5,-2 0.1,0 0.1,0 0.1,0 2,0.5 4.6,0.1 5.8,0 2.2,-0.3 6.2,-1.2 7.1,-2 0.4,-0.3 1.4,-2.8 2.2,-5.7 l 6.1,-0.1 v 2.4 l 1.2,9.6 h 6.9 v -9.6 -0.8 c 1.8,-0.1 21,-0.9 45.5,-0.9 59.1,0 82.4,16.2 96.5,31.1 v -3.7 c -9.4,-19.7 -38.1,-37.7 -96.5,-37.7 h -40.2 c -2,3.4 -4.2,8.2 -5.4,10.7 v -11.9 -9.2 h -6.9 l -1.2,9.2 v 2.8 l -5,-0.1 c 0.1,-1.2 0.1,-2.1 0.1,-2.4 -1.5,-0.6 -3.3,0.9 -3.7,2.2 -0.3,0.9 -2.6,8.1 -2.6,8.1 h -5.8 c -0.1,0 -0.2,0 -0.3,0 0.3,-0.2 0.5,-0.5 0.6,-0.9 l 0.2,-0.7 c 0.1,0.1 0.2,0.2 0.3,0.2 0.9,0.3 1.9,-0.2 2.2,-1.1 0,0 1.2,-3.6 1.5,-4.5 0.3,-1 1,-1 1.6,-1 h 2.2 c 0,-1.5 -2.6,-4.3 -2.6,-4.3 -0.9,-0.9 -2.3,-0.9 -3.1,0 -0.1,0.1 -0.2,0.2 -0.2,0.4 -0.5,-0.6 -1,-1.1 -1,-1.1 -0.9,-0.9 -2.3,-0.9 -3.2,0 -0.2,0.2 -0.4,0.5 -0.5,0.7 -0.4,-0.5 -1,-0.9 -1.7,-0.9 -1.2,0 -2.2,1 -2.2,2.2 0,0 0,0 0,0.1 -0.3,-0.2 -0.7,-0.3 -1.1,-0.3 -1.1,0.1 -2,1 -1.9,2.2 l 0.1,0.8 -10.3,-0.2 v 9.2 l 7.4,-0.1 c -0.2,1.1 -0.3,2.6 -0.2,3.3 0.2,1.2 0.8,1.8 1.1,2.5 0.2,8.2 -17.6,45.6 -14,54.4 3.9,9.7 46.2,21.5 42.7,30 -3,7.6 -8.5,13.3 -7.5,17.2 0.9,3.8 3,6.9 5.9,8.4 v 0 c 1.5,0.9 3.1,1.5 4.6,1.9 0.2,0.1 0.2,-0.1 0.3,0.3 0,0.3 -0.1,0.2 -0.5,0.4 -1.5,0.3 -3,0.4 -4.5,0.2 v 23.2 h -0.1 c -21.7,21.7 -35.2,47.8 -35.2,80.9 v 0 0 c 0,69.3 40.4,112.6 90.2,112.6 37.3,0 69.5,-27.6 69.5,-69.1 0,-35.1 5.6,-47.8 14.6,-56.8 -15,-4.1 -30.4,4.5 -34.4,19.2 -12.9,-8.1 -30,-4 -38.3,9.2 17.6,0 31.9,14.3 31.9,31.9 0,17.6 -14.3,31.9 -31.9,31.9 -17.6,0 -31.9,-14.3 -31.9,-31.9 0,-28.9 17,-52.1 17,-78.3 0,-15.9 -3.1,-25.8 -8.7,-39.7 0,0 20.5,-42.9 23,-45.5 1.9,-1.9 4.3,-2 6.1,-1.7 -3.6,7.4 -5.6,15.6 -5.6,24.4 -0.1,31 25.1,56.1 56.2,56.1 m -99.7,-64.9 0.6,-0.4 c 2.5,3.5 6.5,5.8 11.1,5.8 6.5,0 12,-4.6 13.3,-10.7 0.3,0 0.8,0.1 0.8,0.1 2.7,16.5 -16.9,24.7 -25.8,5.2"
   id="path854" />
		</g>
	</g>
</g>
</svg>
